<?xml version="1.0" encoding="UTF-8"?>
<svg xmlns="http://www.w3.org/2000/svg" xmlns:xlink="http://www.w3.org/1999/xlink" width="288" height="288" viewBox="0 0 288 288">
<defs>
<clipPath id="clip-0">
<path clip-rule="nonzero" d="M 8.21875 266 L 282.519531 266 L 282.519531 268 L 8.21875 268 Z M 8.21875 266 "/>
</clipPath>
<clipPath id="clip-1">
<path clip-rule="nonzero" d="M 8.21875 183 L 282.519531 183 L 282.519531 185 L 8.21875 185 Z M 8.21875 183 "/>
</clipPath>
<clipPath id="clip-2">
<path clip-rule="nonzero" d="M 8.21875 100 L 282.519531 100 L 282.519531 102 L 8.21875 102 Z M 8.21875 100 "/>
</clipPath>
<clipPath id="clip-3">
<path clip-rule="nonzero" d="M 8.21875 17 L 282.519531 17 L 282.519531 19 L 8.21875 19 Z M 8.21875 17 "/>
</clipPath>
<clipPath id="clip-4">
<path clip-rule="nonzero" d="M 20 5.480469 L 22 5.480469 L 22 279.78125 L 20 279.78125 Z M 20 5.480469 "/>
</clipPath>
<clipPath id="clip-5">
<path clip-rule="nonzero" d="M 103 5.480469 L 105 5.480469 L 105 279.78125 L 103 279.78125 Z M 103 5.480469 "/>
</clipPath>
<clipPath id="clip-6">
<path clip-rule="nonzero" d="M 186 5.480469 L 188 5.480469 L 188 279.78125 L 186 279.78125 Z M 186 5.480469 "/>
</clipPath>
<clipPath id="clip-7">
<path clip-rule="nonzero" d="M 269 5.480469 L 271 5.480469 L 271 279.78125 L 269 279.78125 Z M 269 5.480469 "/>
</clipPath>
<clipPath id="clip-8">
<path clip-rule="nonzero" d="M 8.21875 225 L 282.519531 225 L 282.519531 227 L 8.21875 227 Z M 8.21875 225 "/>
</clipPath>
<clipPath id="clip-9">
<path clip-rule="nonzero" d="M 8.21875 142 L 282.519531 142 L 282.519531 144 L 8.21875 144 Z M 8.21875 142 "/>
</clipPath>
<clipPath id="clip-10">
<path clip-rule="nonzero" d="M 8.21875 58 L 282.519531 58 L 282.519531 61 L 8.21875 61 Z M 8.21875 58 "/>
</clipPath>
<clipPath id="clip-11">
<path clip-rule="nonzero" d="M 61 5.480469 L 63 5.480469 L 63 279.78125 L 61 279.78125 Z M 61 5.480469 "/>
</clipPath>
<clipPath id="clip-12">
<path clip-rule="nonzero" d="M 144 5.480469 L 146 5.480469 L 146 279.78125 L 144 279.78125 Z M 144 5.480469 "/>
</clipPath>
<clipPath id="clip-13">
<path clip-rule="nonzero" d="M 227 5.480469 L 230 5.480469 L 230 279.78125 L 227 279.78125 Z M 227 5.480469 "/>
</clipPath>
<clipPath id="clip-14">
<path clip-rule="nonzero" d="M 8.21875 5.480469 L 282.519531 5.480469 L 282.519531 279.78125 L 8.21875 279.78125 Z M 8.21875 5.480469 "/>
</clipPath>
<clipPath id="clip-15">
<path clip-rule="nonzero" d="M 48 5.480469 L 254 5.480469 L 254 279.78125 L 48 279.78125 Z M 48 5.480469 "/>
</clipPath>
</defs>
<rect x="-28.8" y="-28.8" width="345.6" height="345.6" fill="rgb(100%, 100%, 100%)" fill-opacity="1"/>
<g clip-path="url(#clip-0)">
<path fill="none" stroke-width="1.066978" stroke-linecap="butt" stroke-linejoin="round" stroke="rgb(0%, 0%, 0%)" stroke-opacity="0.0196078" stroke-miterlimit="10" d="M 8.21875 267.3125 L 282.519531 267.3125 "/>
</g>
<g clip-path="url(#clip-1)">
<path fill="none" stroke-width="1.066978" stroke-linecap="butt" stroke-linejoin="round" stroke="rgb(0%, 0%, 0%)" stroke-opacity="0.0196078" stroke-miterlimit="10" d="M 8.21875 184.191406 L 282.519531 184.191406 "/>
</g>
<g clip-path="url(#clip-2)">
<path fill="none" stroke-width="1.066978" stroke-linecap="butt" stroke-linejoin="round" stroke="rgb(0%, 0%, 0%)" stroke-opacity="0.0196078" stroke-miterlimit="10" d="M 8.21875 101.070312 L 282.519531 101.070312 "/>
</g>
<g clip-path="url(#clip-3)">
<path fill="none" stroke-width="1.066978" stroke-linecap="butt" stroke-linejoin="round" stroke="rgb(0%, 0%, 0%)" stroke-opacity="0.0196078" stroke-miterlimit="10" d="M 8.21875 17.949219 L 282.519531 17.949219 "/>
</g>
<g clip-path="url(#clip-4)">
<path fill="none" stroke-width="1.066978" stroke-linecap="butt" stroke-linejoin="round" stroke="rgb(0%, 0%, 0%)" stroke-opacity="0.0196078" stroke-miterlimit="10" d="M 20.6875 279.78125 L 20.6875 5.480469 "/>
</g>
<g clip-path="url(#clip-5)">
<path fill="none" stroke-width="1.066978" stroke-linecap="butt" stroke-linejoin="round" stroke="rgb(0%, 0%, 0%)" stroke-opacity="0.0196078" stroke-miterlimit="10" d="M 103.808594 279.78125 L 103.808594 5.480469 "/>
</g>
<g clip-path="url(#clip-6)">
<path fill="none" stroke-width="1.066978" stroke-linecap="butt" stroke-linejoin="round" stroke="rgb(0%, 0%, 0%)" stroke-opacity="0.0196078" stroke-miterlimit="10" d="M 186.929688 279.78125 L 186.929688 5.480469 "/>
</g>
<g clip-path="url(#clip-7)">
<path fill="none" stroke-width="1.066978" stroke-linecap="butt" stroke-linejoin="round" stroke="rgb(0%, 0%, 0%)" stroke-opacity="0.0196078" stroke-miterlimit="10" d="M 270.050781 279.78125 L 270.050781 5.480469 "/>
</g>
<g clip-path="url(#clip-8)">
<path fill="none" stroke-width="1.066978" stroke-linecap="butt" stroke-linejoin="round" stroke="rgb(0%, 0%, 0%)" stroke-opacity="0.0509804" stroke-miterlimit="10" d="M 8.21875 225.75 L 282.519531 225.75 "/>
</g>
<g clip-path="url(#clip-9)">
<path fill="none" stroke-width="1.066978" stroke-linecap="butt" stroke-linejoin="round" stroke="rgb(0%, 0%, 0%)" stroke-opacity="0.0509804" stroke-miterlimit="10" d="M 8.21875 142.628906 L 282.519531 142.628906 "/>
</g>
<g clip-path="url(#clip-10)">
<path fill="none" stroke-width="1.066978" stroke-linecap="butt" stroke-linejoin="round" stroke="rgb(0%, 0%, 0%)" stroke-opacity="0.0509804" stroke-miterlimit="10" d="M 8.21875 59.507812 L 282.519531 59.507812 "/>
</g>
<g clip-path="url(#clip-11)">
<path fill="none" stroke-width="1.066978" stroke-linecap="butt" stroke-linejoin="round" stroke="rgb(0%, 0%, 0%)" stroke-opacity="0.0509804" stroke-miterlimit="10" d="M 62.25 279.78125 L 62.25 5.480469 "/>
</g>
<g clip-path="url(#clip-12)">
<path fill="none" stroke-width="1.066978" stroke-linecap="butt" stroke-linejoin="round" stroke="rgb(0%, 0%, 0%)" stroke-opacity="0.0509804" stroke-miterlimit="10" d="M 145.371094 279.78125 L 145.371094 5.480469 "/>
</g>
<g clip-path="url(#clip-13)">
<path fill="none" stroke-width="1.066978" stroke-linecap="butt" stroke-linejoin="round" stroke="rgb(0%, 0%, 0%)" stroke-opacity="0.0509804" stroke-miterlimit="10" d="M 228.492188 279.78125 L 228.492188 5.480469 "/>
</g>
<g clip-path="url(#clip-14)">
<path fill-rule="nonzero" fill="rgb(0%, 0%, 100%)" fill-opacity="0.14902" d="M -685.847656 911.503906 L -652.566406 878.222656 L -650.898438 876.558594 L -529.421875 755.082031 L -527.757812 753.414062 L -461.195312 686.851562 L -459.527344 685.1875 L -338.050781 563.710938 L -336.386719 562.042969 L -271.488281 497.144531 L -269.820312 495.480469 L -148.34375 374.003906 L -146.679688 372.335938 L -81.78125 307.4375 L -80.113281 305.773438 L 43.027344 182.632812 L 44.691406 180.964844 L 109.589844 116.066406 L 111.257812 114.402344 L 232.734375 -7.074219 L 234.398438 -8.742188 L 299.296875 -73.640625 L 300.964844 -75.304688 L 422.441406 -196.78125 L 424.105469 -198.449219 L 490.667969 -265.011719 L 492.335938 -266.675781 L 613.8125 -388.152344 L 615.476562 -389.820312 L 680.375 -454.71875 L 682.042969 -456.382812 L 803.519531 -577.859375 L 805.183594 -579.527344 L 870.082031 -644.425781 L 871.75 -646.089844 L 976.585938 -750.925781 L 976.585938 -626.246094 L 939.976562 -589.636719 L 938.3125 -587.96875 L 871.75 -521.40625 L 870.082031 -519.742188 L 748.605469 -398.265625 L 746.941406 -396.597656 L 682.042969 -331.699219 L 680.375 -330.035156 L 558.898438 -208.558594 L 557.234375 -206.890625 L 492.335938 -141.992188 L 490.667969 -140.328125 L 369.191406 -18.851562 L 367.527344 -17.183594 L 300.964844 49.378906 L 299.296875 51.042969 L 177.820312 172.519531 L 176.15625 174.1875 L 111.257812 239.085938 L 109.589844 240.75 L -11.886719 362.226562 L -13.550781 363.894531 L -80.113281 430.457031 L -81.78125 432.121094 L -203.257812 553.597656 L -204.921875 555.265625 L -269.820312 620.164062 L -271.488281 621.828125 L -392.964844 743.304688 L -394.628906 744.972656 L -459.527344 809.871094 L -461.195312 811.535156 L -582.671875 933.011719 L -584.335938 934.679688 L -650.898438 1001.242188 L -652.566406 1002.90625 L -685.847656 1036.1875 Z M -685.847656 911.503906 "/>
<path fill="none" stroke-width="0.853583" stroke-linecap="butt" stroke-linejoin="round" stroke="rgb(82.745098%, 82.745098%, 82.745098%)" stroke-opacity="1" stroke-miterlimit="10" d="M -685.847656 911.503906 L -652.566406 878.222656 L -650.898438 876.558594 L -529.421875 755.082031 L -527.757812 753.414062 L -461.195312 686.851562 L -459.527344 685.1875 L -338.050781 563.710938 L -336.386719 562.042969 L -271.488281 497.144531 L -269.820312 495.480469 L -148.34375 374.003906 L -146.679688 372.335938 L -81.78125 307.4375 L -80.113281 305.773438 L 43.027344 182.632812 L 44.691406 180.964844 L 109.589844 116.066406 L 111.257812 114.402344 L 232.734375 -7.074219 L 234.398438 -8.742188 L 299.296875 -73.640625 L 300.964844 -75.304688 L 422.441406 -196.78125 L 424.105469 -198.449219 L 490.667969 -265.011719 L 492.335938 -266.675781 L 613.8125 -388.152344 L 615.476562 -389.820312 L 680.375 -454.71875 L 682.042969 -456.382812 L 803.519531 -577.859375 L 805.183594 -579.527344 L 870.082031 -644.425781 L 871.75 -646.089844 L 976.585938 -750.925781 "/>
<path fill="none" stroke-width="0.853583" stroke-linecap="butt" stroke-linejoin="round" stroke="rgb(82.745098%, 82.745098%, 82.745098%)" stroke-opacity="1" stroke-miterlimit="10" d="M 976.585938 -626.246094 L 939.976562 -589.636719 L 938.3125 -587.96875 L 871.75 -521.40625 L 870.082031 -519.742188 L 748.605469 -398.265625 L 746.941406 -396.597656 L 682.042969 -331.699219 L 680.375 -330.035156 L 558.898438 -208.558594 L 557.234375 -206.890625 L 492.335938 -141.992188 L 490.667969 -140.328125 L 369.191406 -18.851562 L 367.527344 -17.183594 L 300.964844 49.378906 L 299.296875 51.042969 L 177.820312 172.519531 L 176.15625 174.1875 L 111.257812 239.085938 L 109.589844 240.75 L -11.886719 362.226562 L -13.550781 363.894531 L -80.113281 430.457031 L -81.78125 432.121094 L -203.257812 553.597656 L -204.921875 555.265625 L -269.820312 620.164062 L -271.488281 621.828125 L -392.964844 743.304688 L -394.628906 744.972656 L -459.527344 809.871094 L -461.195312 811.535156 L -582.671875 933.011719 L -584.335938 934.679688 L -650.898438 1001.242188 L -652.566406 1002.90625 L -685.847656 1036.1875 "/>
</g>
<path fill-rule="nonzero" fill="rgb(0%, 0%, 0%)" fill-opacity="1" stroke-width="0.708661" stroke-linecap="round" stroke-linejoin="round" stroke="rgb(0%, 0%, 0%)" stroke-opacity="1" stroke-miterlimit="10" d="M 153.085938 120.734375 C 153.085938 123.34375 149.179688 123.34375 149.179688 120.734375 C 149.179688 118.128906 153.085938 118.128906 153.085938 120.734375 "/>
<path fill-rule="nonzero" fill="rgb(100%, 0%, 0%)" fill-opacity="0.298039" stroke-width="0.853583" stroke-linecap="butt" stroke-linejoin="round" stroke="rgb(82.745098%, 82.745098%, 82.745098%)" stroke-opacity="1" stroke-miterlimit="10" d="M 208.402344 120.734375 L 208.289062 117.136719 L 207.949219 113.550781 L 207.386719 109.996094 L 206.597656 106.480469 L 205.59375 103.023438 L 204.371094 99.632812 L 202.941406 96.328125 L 201.304688 93.121094 L 199.46875 90.023438 L 197.441406 87.046875 L 195.234375 84.199219 L 192.851562 81.5 L 190.300781 78.957031 L 187.597656 76.578125 L 184.75 74.371094 L 181.769531 72.351562 L 178.667969 70.519531 L 175.457031 68.890625 L 172.152344 67.464844 L 168.761719 66.246094 L 165.300781 65.246094 L 161.785156 64.464844 L 158.226562 63.910156 L 154.640625 63.574219 L 151.042969 63.46875 L 147.441406 63.585938 L 143.859375 63.929688 L 140.300781 64.5 L 136.789062 65.292969 L 133.332031 66.304688 L 129.945312 67.53125 L 126.644531 68.964844 L 123.4375 70.609375 L 120.34375 72.449219 L 117.367188 74.480469 L 114.527344 76.691406 L 111.832031 79.082031 L 109.292969 81.632812 L 106.917969 84.339844 L 104.714844 87.191406 L 102.699219 90.175781 L 100.875 93.277344 L 99.25 96.492188 L 97.828125 99.800781 L 96.617188 103.191406 L 95.621094 106.65625 L 94.847656 110.171875 L 94.292969 113.730469 L 93.964844 117.316406 L 93.863281 120.917969 L 93.988281 124.515625 L 94.339844 128.097656 L 94.914062 131.65625 L 95.710938 135.167969 L 96.726562 138.621094 L 97.960938 142.003906 L 99.402344 145.304688 L 101.046875 148.507812 L 102.894531 151.601562 L 104.929688 154.574219 L 107.148438 157.410156 L 109.539062 160.101562 L 112.09375 162.636719 L 114.804688 165.007812 L 117.660156 167.203125 L 120.648438 169.214844 L 123.753906 171.035156 L 126.96875 172.65625 L 130.28125 174.074219 L 133.675781 175.277344 L 137.136719 176.269531 L 140.65625 177.039062 L 144.214844 177.585938 L 147.804688 177.90625 L 151.402344 178.003906 L 155 177.875 L 158.585938 177.519531 L 162.140625 176.9375 L 165.648438 176.132812 L 169.105469 175.113281 L 172.484375 173.875 L 175.785156 172.429688 L 178.984375 170.777344 L 182.074219 168.925781 L 185.042969 166.886719 L 187.875 164.664062 L 190.5625 162.269531 L 193.097656 159.707031 L 195.460938 156.992188 L 197.652344 154.136719 L 199.660156 151.144531 L 201.476562 148.035156 L 203.09375 144.816406 L 204.503906 141.503906 L 205.703125 138.105469 L 206.6875 134.644531 L 207.453125 131.125 L 207.992188 127.5625 L 208.308594 123.976562 L 208.398438 120.375 L 208.265625 116.777344 L 207.902344 113.195312 L 207.316406 109.640625 L 206.507812 106.132812 L 205.480469 102.679688 L 204.238281 99.300781 L 202.785156 96.003906 L 201.128906 92.804688 L 199.273438 89.71875 L 197.230469 86.753906 L 195.003906 83.925781 L 192.601562 81.238281 L 190.039062 78.710938 L 187.320312 76.347656 L 184.457031 74.164062 L 181.464844 72.160156 L 178.351562 70.347656 L 175.132812 68.738281 L 171.816406 67.332031 L 168.417969 66.136719 L 164.953125 65.160156 L 161.433594 64.402344 L 157.871094 63.863281 L 154.28125 63.554688 L 150.683594 63.46875 L 147.082031 63.609375 L 143.5 63.976562 L 139.949219 64.570312 L 136.441406 65.382812 L 132.992188 66.417969 L 129.613281 67.664062 L 126.320312 69.121094 L 123.125 70.785156 L 120.039062 72.644531 L 117.078125 74.691406 L 114.253906 76.921875 L 111.570312 79.328125 L 109.046875 81.898438 L 106.6875 84.617188 L 104.507812 87.484375 L 102.507812 90.480469 L 100.703125 93.597656 L 99.097656 96.820312 L 97.695312 100.136719 L 96.507812 103.535156 L 95.535156 107.003906 L 94.78125 110.523438 L 94.25 114.085938 L 93.945312 117.675781 L 93.867188 121.277344 L 94.011719 124.875 L 94.386719 128.457031 L 94.984375 132.007812 L 95.804688 135.515625 L 96.84375 138.964844 L 98.09375 142.339844 L 99.558594 145.628906 L 101.222656 148.824219 L 103.089844 151.902344 L 105.140625 154.863281 L 107.378906 157.683594 L 109.789062 160.363281 L 112.359375 162.882812 L 115.085938 165.238281 L 117.953125 167.414062 L 120.953125 169.40625 L 124.070312 171.207031 L 127.296875 172.808594 L 130.617188 174.203125 L 134.019531 175.386719 L 137.488281 176.355469 L 141.011719 177.101562 L 144.574219 177.628906 L 148.164062 177.925781 L 151.761719 178 L 155.359375 177.847656 L 158.941406 177.46875 L 162.492188 176.867188 L 166 176.042969 L 169.445312 174.996094 L 172.820312 173.738281 L 176.109375 172.273438 L 179.296875 170.601562 L 182.375 168.730469 L 185.332031 166.671875 L 188.152344 164.433594 L 190.824219 162.019531 L 193.339844 159.441406 L 195.691406 156.714844 L 197.863281 153.839844 L 199.851562 150.839844 L 201.648438 147.71875 L 203.242188 144.488281 L 204.632812 141.167969 L 205.8125 137.761719 L 206.773438 134.292969 L 207.515625 130.769531 L 208.035156 127.207031 L 208.328125 123.617188 L 208.398438 120.015625 L 208.238281 116.417969 L 207.855469 112.835938 L 207.246094 109.289062 L 206.414062 105.785156 L 205.367188 102.339844 L 204.101562 98.964844 L 202.628906 95.679688 L 200.953125 92.492188 L 199.078125 89.417969 L 197.015625 86.464844 L 194.769531 83.648438 L 192.351562 80.980469 L 189.773438 78.46875 L 187.039062 76.121094 L 184.164062 73.953125 L 181.160156 71.96875 L 178.035156 70.179688 L 174.804688 68.589844 L 171.480469 67.203125 L 168.074219 66.03125 L 164.601562 65.074219 L 161.078125 64.335938 L 157.511719 63.824219 L 153.921875 63.535156 L 150.324219 63.472656 L 146.726562 63.636719 L 143.144531 64.027344 L 139.597656 64.640625 L 136.09375 65.476562 L 132.648438 66.53125 L 129.28125 67.800781 L 125.996094 69.277344 L 122.8125 70.960938 L 119.738281 72.839844 L 116.789062 74.90625 L 113.976562 77.15625 L 111.3125 79.578125 L 108.804688 82.160156 L 106.460938 84.898438 L 104.296875 87.777344 L 102.320312 90.785156 L 100.535156 93.914062 L 98.949219 97.148438 L 97.566406 100.472656 L 96.402344 103.878906 L 95.449219 107.355469 L 94.71875 110.878906 L 94.210938 114.445312 L 93.925781 118.035156 L 93.871094 121.636719 L 94.039062 125.234375 L 94.4375 128.8125 L 95.054688 132.359375 L 95.898438 135.863281 L 96.957031 139.304688 L 98.230469 142.671875 L 99.714844 145.953125 L 101.402344 149.136719 L 103.285156 152.207031 L 105.359375 155.152344 L 107.613281 157.960938 L 110.039062 160.621094 L 112.625 163.125 L 115.367188 165.460938 L 118.246094 167.621094 L 121.261719 169.597656 L 124.390625 171.378906 L 127.625 172.957031 L 130.953125 174.332031 L 134.363281 175.496094 L 137.839844 176.441406 L 141.367188 177.164062 L 144.929688 177.667969 L 148.523438 177.945312 L 152.125 177.996094 L 155.71875 177.820312 L 159.300781 177.417969 L 162.847656 176.792969 L 166.347656 175.945312 L 169.785156 174.882812 L 173.152344 173.601562 L 176.433594 172.113281 L 179.609375 170.421875 L 182.675781 168.535156 L 185.621094 166.457031 L 188.425781 164.199219 L 191.082031 161.769531 L 193.582031 159.175781 L 195.914062 156.433594 L 198.070312 153.546875 L 200.039062 150.53125 L 201.816406 147.398438 L 203.390625 144.160156 L 204.761719 140.828125 L 205.917969 137.417969 L 206.859375 133.941406 L 207.578125 130.414062 L 208.074219 126.847656 L 208.347656 123.257812 L 208.390625 119.65625 L 208.210938 116.058594 L 207.804688 112.480469 L 207.171875 108.933594 L 206.320312 105.4375 L 205.25 101.996094 L 203.964844 98.632812 L 202.46875 95.355469 L 200.773438 92.179688 L 198.882812 89.117188 L 196.800781 86.175781 L 194.535156 83.375 L 192.101562 80.722656 L 189.507812 78.226562 L 186.757812 75.898438 L 183.871094 73.746094 L 180.851562 71.78125 L 177.714844 70.011719 L 174.476562 68.441406 L 171.140625 67.078125 L 167.730469 65.925781 L 164.253906 64.988281 L 160.722656 64.277344 L 157.15625 63.785156 L 153.5625 63.519531 L 149.960938 63.480469 L 146.367188 63.664062 L 142.789062 64.078125 L 139.242188 64.714844 L 135.746094 65.574219 L 132.308594 66.648438 L 128.945312 67.9375 L 125.671875 69.4375 L 122.5 71.140625 L 119.4375 73.039062 L 116.503906 75.125 L 113.703125 77.390625 L 111.054688 79.828125 L 108.5625 82.429688 L 106.238281 85.179688 L 104.09375 88.074219 L 102.132812 91.09375 L 100.367188 94.230469 L 98.800781 97.476562 L 97.441406 100.8125 L 96.296875 104.226562 L 95.367188 107.703125 L 94.65625 111.234375 L 94.171875 114.804688 L 93.910156 118.394531 L 93.878906 121.996094 L 94.070312 125.59375 L 94.488281 129.167969 L 95.128906 132.714844 L 95.992188 136.210938 L 97.074219 139.644531 L 98.371094 143.003906 L 99.875 146.277344 L 101.582031 149.449219 L 103.484375 152.507812 L 105.574219 155.4375 L 107.847656 158.234375 L 110.289062 160.878906 L 112.894531 163.367188 L 115.648438 165.6875 L 118.542969 167.828125 L 121.566406 169.78125 L 124.707031 171.542969 L 127.953125 173.105469 L 131.292969 174.457031 L 134.707031 175.597656 L 138.1875 176.523438 L 141.71875 177.226562 L 145.289062 177.707031 L 148.882812 177.960938 L 152.484375 177.988281 L 156.078125 177.789062 L 159.65625 177.367188 L 163.199219 176.71875 L 166.691406 175.851562 L 170.125 174.761719 L 173.484375 173.460938 L 176.753906 171.953125 L 179.921875 170.242188 L 182.976562 168.335938 L 185.90625 166.238281 L 188.699219 163.964844 L 191.339844 161.515625 L 193.824219 158.910156 L 196.140625 156.148438 L 198.277344 153.25 L 200.226562 150.222656 L 201.984375 147.078125 L 203.539062 143.832031 L 204.886719 140.492188 L 206.019531 137.074219 L 206.941406 133.59375 L 207.636719 130.058594 L 208.113281 126.488281 L 208.359375 122.898438 L 208.382812 119.296875 L 208.179688 115.699219 L 207.75 112.125 L 207.097656 108.582031 L 206.222656 105.089844 L 205.128906 101.65625 L 203.824219 98.300781 L 202.308594 95.035156 L 200.59375 91.867188 L 198.679688 88.816406 L 196.582031 85.890625 L 194.300781 83.101562 L 191.851562 80.464844 L 189.238281 77.984375 L 186.476562 75.675781 L 183.574219 73.542969 L 180.542969 71.597656 L 177.398438 69.84375 L 174.144531 68.292969 L 170.804688 66.953125 L 167.386719 65.820312 L 163.902344 64.910156 L 160.367188 64.214844 L 156.796875 63.746094 L 153.203125 63.503906 L 149.601562 63.488281 L 146.007812 63.695312 L 142.433594 64.132812 L 138.890625 64.789062 L 135.398438 65.671875 L 131.96875 66.769531 L 128.613281 68.078125 L 125.351562 69.597656 L 122.1875 71.320312 L 119.136719 73.238281 L 116.214844 75.34375 L 113.433594 77.628906 L 110.796875 80.082031 L 108.320312 82.699219 L 106.015625 85.464844 L 103.886719 88.367188 L 101.945312 91.402344 L 100.199219 94.550781 L 98.65625 97.804688 L 97.316406 101.148438 L 96.191406 104.570312 L 95.285156 108.054688 L 94.597656 111.589844 L 94.136719 115.160156 L 93.898438 118.753906 L 93.886719 122.355469 L 94.101562 125.953125 L 94.542969 129.527344 L 95.207031 133.066406 L 96.09375 136.554688 L 97.195312 139.984375 L 98.511719 143.335938 L 100.035156 146.597656 L 101.761719 149.757812 L 103.683594 152.804688 L 105.792969 155.722656 L 108.082031 158.503906 L 110.542969 161.136719 L 113.160156 163.605469 L 115.929688 165.910156 L 118.839844 168.03125 L 121.875 169.96875 L 125.027344 171.710938 L 128.285156 173.25 L 131.628906 174.582031 L 135.054688 175.699219 L 138.539062 176.601562 L 142.074219 177.285156 L 145.648438 177.742188 L 149.242188 177.972656 L 152.84375 177.980469 L 156.4375 177.757812 L 160.011719 177.3125 L 163.550781 176.640625 L 167.039062 175.75 L 170.464844 174.644531 L 173.816406 173.320312 L 177.074219 171.792969 L 180.234375 170.058594 L 183.277344 168.132812 L 186.191406 166.019531 L 188.96875 163.726562 L 191.597656 161.261719 L 194.0625 158.640625 L 196.359375 155.867188 L 198.480469 152.953125 L 200.410156 149.914062 L 202.148438 146.757812 L 203.683594 143.5 L 205.007812 140.152344 L 206.125 136.730469 L 207.019531 133.242188 L 207.695312 129.703125 L 208.148438 126.128906 L 208.375 122.535156 L 208.375 118.933594 L 208.148438 115.339844 L 207.695312 111.769531 L 207.019531 108.230469 L 206.125 104.742188 L 205.007812 101.316406 L 203.683594 97.96875 L 202.148438 94.710938 L 200.410156 91.558594 L 198.480469 88.519531 L 196.359375 85.605469 L 194.0625 82.832031 L 191.597656 80.207031 L 188.96875 77.746094 L 186.191406 75.453125 L 183.277344 73.339844 L 180.234375 71.410156 L 177.074219 69.679688 L 173.816406 68.152344 L 170.464844 66.828125 L 167.039062 65.71875 L 163.550781 64.828125 L 160.011719 64.160156 L 156.4375 63.714844 L 152.84375 63.492188 L 149.242188 63.5 L 145.648438 63.730469 L 142.074219 64.1875 L 138.539062 64.867188 L 135.054688 65.769531 L 131.628906 66.890625 L 128.285156 68.222656 L 125.027344 69.761719 L 121.875 71.503906 L 118.839844 73.441406 L 115.929688 75.5625 L 113.160156 77.863281 L 110.542969 80.335938 L 108.082031 82.96875 L 105.792969 85.746094 L 103.683594 88.667969 L 101.761719 91.710938 L 100.035156 94.871094 L 98.511719 98.136719 L 97.195312 101.488281 L 96.09375 104.914062 L 95.207031 108.40625 L 94.542969 111.945312 L 94.101562 115.519531 L 93.886719 119.117188 L 93.898438 122.714844 L 94.136719 126.308594 L 94.597656 129.882812 L 95.285156 133.417969 L 96.191406 136.902344 L 97.316406 140.324219 L 98.65625 143.667969 L 100.199219 146.917969 L 101.945312 150.070312 L 103.886719 153.101562 L 106.015625 156.007812 L 108.320312 158.773438 L 110.796875 161.390625 L 113.433594 163.84375 L 116.214844 166.128906 L 119.136719 168.234375 L 122.1875 170.152344 L 125.351562 171.871094 L 128.613281 173.390625 L 131.96875 174.703125 L 135.398438 175.800781 L 138.890625 176.679688 L 142.433594 177.339844 L 146.007812 177.773438 L 149.601562 177.984375 L 153.203125 177.96875 L 156.796875 177.722656 L 160.367188 177.253906 L 163.902344 176.5625 L 167.386719 175.648438 L 170.804688 174.519531 L 174.144531 173.175781 L 177.398438 171.628906 L 180.542969 169.875 L 183.574219 167.929688 L 186.476562 165.796875 L 189.238281 163.488281 L 191.851562 161.007812 L 194.300781 158.367188 L 196.582031 155.582031 L 198.679688 152.65625 L 200.59375 149.605469 L 202.308594 146.4375 L 203.824219 143.171875 L 205.128906 139.8125 L 206.222656 136.382812 L 207.097656 132.890625 L 207.75 129.347656 L 208.179688 125.773438 L 208.382812 122.175781 L 208.359375 118.574219 L 208.113281 114.984375 L 207.636719 111.414062 L 206.941406 107.878906 L 206.019531 104.398438 L 204.886719 100.980469 L 203.539062 97.640625 L 201.984375 94.390625 L 200.226562 91.246094 L 198.277344 88.21875 L 196.140625 85.320312 L 193.824219 82.5625 L 191.339844 79.957031 L 188.699219 77.507812 L 185.90625 75.234375 L 182.976562 73.136719 L 179.921875 71.230469 L 176.753906 69.519531 L 173.484375 68.007812 L 170.125 66.707031 L 166.691406 65.621094 L 163.199219 64.753906 L 159.65625 64.105469 L 156.078125 63.679688 L 152.484375 63.484375 L 148.882812 63.511719 L 145.289062 63.765625 L 141.71875 64.246094 L 138.1875 64.949219 L 134.707031 65.871094 L 131.292969 67.015625 L 127.953125 68.367188 L 124.707031 69.925781 L 121.566406 71.6875 L 118.542969 73.644531 L 115.648438 75.785156 L 112.894531 78.105469 L 110.289062 80.59375 L 107.847656 83.238281 L 105.574219 86.035156 L 103.484375 88.964844 L 101.582031 92.023438 L 99.875 95.195312 L 98.371094 98.46875 L 97.074219 101.828125 L 95.992188 105.261719 L 95.128906 108.757812 L 94.488281 112.300781 L 94.070312 115.878906 L 93.878906 119.476562 L 93.910156 123.078125 L 94.171875 126.667969 L 94.65625 130.238281 L 95.367188 133.769531 L 96.296875 137.246094 L 97.441406 140.660156 L 98.800781 143.996094 L 100.367188 147.238281 L 102.132812 150.378906 L 104.09375 153.398438 L 106.238281 156.292969 L 108.5625 159.042969 L 111.054688 161.644531 L 113.703125 164.082031 L 116.503906 166.347656 L 119.4375 168.433594 L 122.5 170.332031 L 125.671875 172.035156 L 128.945312 173.53125 L 132.308594 174.824219 L 135.746094 175.898438 L 139.242188 176.757812 L 142.789062 177.394531 L 146.367188 177.804688 L 149.960938 177.992188 L 153.5625 177.953125 L 157.15625 177.6875 L 160.722656 177.195312 L 164.253906 176.480469 L 167.730469 175.546875 L 171.140625 174.394531 L 174.476562 173.03125 L 177.714844 171.460938 L 180.851562 169.691406 L 183.871094 167.726562 L 186.757812 165.574219 L 189.507812 163.246094 L 192.101562 160.75 L 194.535156 158.097656 L 196.800781 155.292969 L 198.882812 152.355469 L 200.773438 149.292969 L 202.46875 146.117188 L 203.964844 142.839844 L 205.25 139.472656 L 206.320312 136.035156 L 207.171875 132.535156 L 207.804688 128.992188 L 208.210938 125.414062 L 208.390625 121.816406 L 208.347656 118.214844 L 208.074219 114.625 L 207.578125 111.058594 L 206.859375 107.527344 L 205.917969 104.050781 L 204.761719 100.640625 L 203.390625 97.3125 L 201.816406 94.074219 L 200.039062 90.941406 L 198.070312 87.925781 L 195.914062 85.039062 L 193.582031 82.296875 L 191.082031 79.703125 L 188.425781 77.273438 L 185.621094 75.015625 L 182.675781 72.9375 L 179.609375 71.050781 L 176.433594 69.359375 L 173.152344 67.871094 L 169.785156 66.589844 L 166.347656 65.523438 L 162.847656 64.679688 L 159.300781 64.050781 L 155.71875 63.652344 L 152.125 63.476562 L 148.523438 63.527344 L 144.929688 63.804688 L 141.367188 64.304688 L 137.839844 65.03125 L 134.363281 65.976562 L 130.953125 67.140625 L 127.625 68.515625 L 124.390625 70.09375 L 121.261719 71.875 L 118.246094 73.851562 L 115.367188 76.007812 L 112.625 78.347656 L 110.039062 80.851562 L 107.613281 83.511719 L 105.359375 86.320312 L 103.285156 89.265625 L 101.402344 92.335938 L 99.714844 95.519531 L 98.230469 98.800781 L 96.957031 102.167969 L 95.898438 105.609375 L 95.054688 109.109375 L 94.4375 112.660156 L 94.039062 116.238281 L 93.871094 119.835938 L 93.925781 123.4375 L 94.210938 127.027344 L 94.71875 130.59375 L 95.449219 134.117188 L 96.402344 137.589844 L 97.566406 141 L 98.949219 144.324219 L 100.535156 147.558594 L 102.320312 150.6875 L 104.296875 153.695312 L 106.460938 156.574219 L 108.804688 159.308594 L 111.3125 161.894531 L 113.976562 164.316406 L 116.789062 166.566406 L 119.738281 168.632812 L 122.8125 170.511719 L 125.996094 172.191406 L 129.28125 173.671875 L 132.648438 174.941406 L 136.09375 175.996094 L 139.597656 176.832031 L 143.144531 177.445312 L 146.726562 177.835938 L 150.324219 178 L 153.921875 177.9375 L 157.511719 177.648438 L 161.078125 177.132812 L 164.601562 176.398438 L 168.074219 175.441406 L 171.480469 174.269531 L 174.804688 172.882812 L 178.035156 171.292969 L 181.160156 169.503906 L 184.164062 167.519531 L 187.039062 165.347656 L 189.773438 163.003906 L 192.351562 160.492188 L 194.769531 157.824219 L 197.015625 155.007812 L 199.078125 152.054688 L 200.953125 148.980469 L 202.628906 145.792969 L 204.101562 142.507812 L 205.367188 139.132812 L 206.414062 135.6875 L 207.246094 132.183594 L 207.855469 128.636719 L 208.238281 125.054688 L 208.398438 121.457031 L 208.328125 117.855469 L 208.035156 114.265625 L 207.515625 110.703125 L 206.773438 107.179688 L 205.8125 103.707031 L 204.632812 100.304688 L 203.242188 96.984375 L 201.648438 93.753906 L 199.851562 90.632812 L 197.863281 87.628906 L 195.691406 84.757812 L 193.339844 82.027344 L 190.824219 79.453125 L 188.152344 77.039062 L 185.332031 74.800781 L 182.375 72.742188 L 179.296875 70.871094 L 176.109375 69.199219 L 172.820312 67.730469 L 169.445312 66.472656 L 166 65.429688 L 162.492188 64.605469 L 158.941406 64.003906 L 155.359375 63.625 L 151.761719 63.46875 L 148.164062 63.542969 L 144.574219 63.84375 L 141.011719 64.367188 L 137.488281 65.117188 L 134.019531 66.082031 L 130.617188 67.269531 L 127.296875 68.664062 L 124.070312 70.265625 L 120.953125 72.066406 L 117.953125 74.058594 L 115.085938 76.234375 L 112.359375 78.589844 L 109.789062 81.109375 L 107.378906 83.785156 L 105.140625 86.609375 L 103.089844 89.566406 L 101.222656 92.648438 L 99.558594 95.839844 L 98.09375 99.132812 L 96.84375 102.507812 L 95.804688 105.957031 L 94.984375 109.464844 L 94.386719 113.015625 L 94.011719 116.597656 L 93.867188 120.195312 L 93.945312 123.796875 L 94.25 127.382812 L 94.78125 130.945312 L 95.535156 134.46875 L 96.507812 137.933594 L 97.695312 141.335938 L 99.097656 144.652344 L 100.703125 147.875 L 102.507812 150.992188 L 104.507812 153.988281 L 106.6875 156.851562 L 109.046875 159.574219 L 111.570312 162.144531 L 114.253906 164.546875 L 117.078125 166.78125 L 120.039062 168.828125 L 123.125 170.6875 L 126.320312 172.351562 L 129.613281 173.808594 L 132.992188 175.054688 L 136.441406 176.089844 L 139.949219 176.902344 L 143.5 177.492188 L 147.082031 177.863281 L 150.683594 178.003906 L 154.28125 177.917969 L 157.871094 177.605469 L 161.433594 177.070312 L 164.953125 176.3125 L 168.417969 175.332031 L 171.816406 174.140625 L 175.132812 172.734375 L 178.351562 171.121094 L 181.464844 169.3125 L 184.457031 167.308594 L 187.320312 165.121094 L 190.039062 162.761719 L 192.601562 160.230469 L 195.003906 157.546875 L 197.230469 154.71875 L 199.273438 151.753906 L 201.128906 148.664062 L 202.785156 145.46875 L 204.238281 142.171875 L 205.480469 138.792969 L 206.507812 135.339844 L 207.316406 131.832031 L 207.902344 128.277344 L 208.265625 124.695312 L 208.398438 121.097656 L 208.308594 117.496094 L 207.992188 113.910156 L 207.453125 110.347656 L 206.6875 106.828125 L 205.703125 103.363281 L 204.503906 99.96875 L 203.09375 96.65625 L 201.476562 93.4375 L 199.660156 90.328125 L 197.652344 87.335938 L 195.460938 84.480469 L 193.097656 81.765625 L 190.5625 79.203125 L 187.875 76.808594 L 185.042969 74.585938 L 182.074219 72.546875 L 178.984375 70.695312 L 175.785156 69.042969 L 172.484375 67.597656 L 169.105469 66.359375 L 165.648438 65.335938 L 162.140625 64.535156 L 158.585938 63.953125 L 155 63.597656 L 151.402344 63.46875 L 147.804688 63.5625 L 144.214844 63.886719 L 140.65625 64.433594 L 137.136719 65.203125 L 133.675781 66.191406 L 130.28125 67.398438 L 126.96875 68.8125 L 123.753906 70.433594 L 120.648438 72.253906 L 117.660156 74.265625 L 114.804688 76.464844 L 112.09375 78.832031 L 109.539062 81.371094 L 107.148438 84.0625 L 104.929688 86.898438 L 102.894531 89.871094 L 101.046875 92.964844 L 99.402344 96.167969 L 97.960938 99.464844 L 96.726562 102.851562 L 95.710938 106.304688 L 94.914062 109.816406 L 94.339844 113.371094 L 93.988281 116.957031 L 93.863281 120.554688 L 93.964844 124.15625 L 94.292969 127.742188 L 94.847656 131.300781 L 95.621094 134.816406 L 96.617188 138.277344 L 97.828125 141.671875 L 99.25 144.980469 L 100.875 148.191406 L 102.699219 151.296875 L 104.714844 154.28125 L 106.917969 157.132812 L 109.292969 159.839844 L 111.832031 162.390625 L 114.527344 164.78125 L 117.367188 166.992188 L 120.34375 169.023438 L 123.4375 170.863281 L 126.644531 172.503906 L 129.945312 173.941406 L 133.332031 175.167969 L 136.789062 176.179688 L 140.300781 176.972656 L 143.859375 177.539062 L 147.441406 177.886719 L 151.042969 178.003906 L 154.640625 177.898438 L 158.226562 177.5625 L 161.785156 177.003906 L 165.300781 176.222656 L 168.761719 175.222656 L 172.152344 174.007812 L 175.457031 172.582031 L 178.667969 170.949219 L 181.769531 169.121094 L 184.75 167.097656 L 187.597656 164.894531 L 190.300781 162.515625 L 192.851562 159.96875 L 195.234375 157.269531 L 197.441406 154.425781 L 199.46875 151.449219 L 201.304688 148.351562 L 202.941406 145.144531 L 204.371094 141.839844 L 205.59375 138.449219 L 206.597656 134.992188 L 207.386719 131.476562 L 207.949219 127.921875 L 208.289062 124.335938 Z M 208.402344 120.734375 "/>
<path fill="none" stroke-width="2.133957" stroke-linecap="butt" stroke-linejoin="round" stroke="rgb(100%, 64.705882%, 0%)" stroke-opacity="1" stroke-miterlimit="10" d="M 151.132812 120.734375 L 74.695312 18.011719 "/>
<path fill-rule="nonzero" fill="rgb(100%, 64.705882%, 0%)" fill-opacity="1" stroke-width="2.133957" stroke-linecap="butt" stroke-linejoin="round" stroke="rgb(100%, 64.705882%, 0%)" stroke-opacity="1" stroke-miterlimit="10" d="M 79.902344 20.257812 L 74.695312 18.011719 L 75.351562 23.640625 Z M 79.902344 20.257812 "/>
<path fill="none" stroke-width="2.133957" stroke-linecap="butt" stroke-linejoin="round" stroke="rgb(0%, 0%, 100%)" stroke-opacity="1" stroke-miterlimit="10" d="M 151.132812 120.734375 L 161.285156 64.375 "/>
<path fill-rule="nonzero" fill="rgb(0%, 0%, 100%)" fill-opacity="1" stroke-width="2.133957" stroke-linecap="butt" stroke-linejoin="round" stroke="rgb(0%, 0%, 100%)" stroke-opacity="1" stroke-miterlimit="10" d="M 163.203125 69.707031 L 161.285156 64.375 L 157.625 68.703125 Z M 163.203125 69.707031 "/>
<g clip-path="url(#clip-15)">
<path fill="none" stroke-width="1.49377" stroke-linecap="butt" stroke-linejoin="round" stroke="rgb(0%, 0%, 100%)" stroke-opacity="0.8" stroke-dasharray="1.49377 4.481309" stroke-miterlimit="10" d="M 49.613281 684.355469 L 50.832031 677.582031 L 51.035156 676.457031 L 52.253906 669.683594 L 52.457031 668.558594 L 52.660156 667.429688 L 52.867188 666.300781 L 53.679688 661.785156 L 53.882812 660.660156 L 55.304688 652.757812 L 55.507812 651.632812 L 56.726562 644.859375 L 56.929688 643.734375 L 58.148438 636.960938 L 58.351562 635.835938 L 59.570312 629.0625 L 59.777344 627.9375 L 60.996094 621.164062 L 61.199219 620.039062 L 62.621094 612.136719 L 62.824219 611.011719 L 64.042969 604.238281 L 64.246094 603.113281 L 65.464844 596.339844 L 65.667969 595.214844 L 66.277344 591.828125 L 66.484375 590.699219 L 66.890625 588.441406 L 67.09375 587.316406 L 68.3125 580.542969 L 68.515625 579.417969 L 69.9375 571.515625 L 70.140625 570.390625 L 71.359375 563.617188 L 71.5625 562.492188 L 72.78125 555.71875 L 72.984375 554.59375 L 73.1875 553.464844 L 73.394531 552.335938 L 74.207031 547.820312 L 74.410156 546.695312 L 75.628906 539.921875 L 75.832031 538.796875 L 77.253906 530.894531 L 77.457031 529.769531 L 78.675781 522.996094 L 78.878906 521.871094 L 79.894531 516.226562 L 80.101562 515.097656 L 80.304688 513.972656 L 81.523438 507.199219 L 81.726562 506.074219 L 83.148438 498.171875 L 83.351562 497.046875 L 84.570312 490.273438 L 84.773438 489.148438 L 85.992188 482.375 L 86.195312 481.25 L 86.601562 478.992188 L 86.808594 477.863281 L 87.417969 474.476562 L 87.621094 473.351562 L 88.839844 466.578125 L 89.042969 465.453125 L 90.464844 457.550781 L 90.667969 456.425781 L 91.886719 449.652344 L 92.089844 448.527344 L 93.308594 441.753906 L 93.511719 440.628906 L 93.71875 439.5 L 94.734375 433.855469 L 94.9375 432.730469 L 96.15625 425.957031 L 96.359375 424.832031 L 97.78125 416.929688 L 97.984375 415.804688 L 99.203125 409.03125 L 99.40625 407.90625 L 100.21875 403.390625 L 100.425781 402.261719 L 100.628906 401.132812 L 100.832031 400.007812 L 102.050781 393.234375 L 102.253906 392.109375 L 103.472656 385.335938 L 103.675781 384.210938 L 105.097656 376.308594 L 105.300781 375.183594 L 106.519531 368.410156 L 106.722656 367.285156 L 107.128906 365.027344 L 107.335938 363.898438 L 107.945312 360.511719 L 108.148438 359.386719 L 109.367188 352.613281 L 109.570312 351.488281 L 110.789062 344.714844 L 110.992188 343.589844 L 112.414062 335.6875 L 112.617188 334.5625 L 113.835938 327.789062 L 114.042969 326.664062 L 115.261719 319.890625 L 115.464844 318.765625 L 116.683594 311.992188 L 116.886719 310.867188 L 118.308594 302.964844 L 118.511719 301.839844 L 119.730469 295.066406 L 119.933594 293.941406 L 120.542969 290.554688 L 120.75 289.425781 L 121.15625 287.167969 L 121.359375 286.042969 L 122.578125 279.269531 L 122.78125 278.144531 L 124 271.371094 L 124.203125 270.246094 L 125.625 262.34375 L 125.828125 261.21875 L 127.046875 254.445312 L 127.25 253.320312 L 127.453125 252.191406 L 127.660156 251.0625 L 128.472656 246.546875 L 128.675781 245.421875 L 129.894531 238.648438 L 130.097656 237.523438 L 131.316406 230.75 L 131.519531 229.625 L 132.941406 221.722656 L 133.144531 220.597656 L 134.160156 214.953125 L 134.367188 213.824219 L 134.570312 212.699219 L 135.789062 205.925781 L 135.992188 204.800781 L 137.210938 198.027344 L 137.414062 196.902344 L 138.632812 190.128906 L 138.835938 189.003906 L 140.257812 181.101562 L 140.460938 179.976562 L 141.070312 176.589844 L 141.277344 175.460938 L 141.683594 173.203125 L 141.886719 172.078125 L 143.105469 165.304688 L 143.308594 164.179688 L 144.527344 157.40625 L 144.730469 156.28125 L 146.152344 148.378906 L 146.355469 147.253906 L 147.574219 140.480469 L 147.777344 139.355469 L 147.984375 138.226562 L 149 132.582031 L 149.203125 131.457031 L 150.421875 124.683594 L 150.625 123.558594 L 151.84375 116.785156 L 152.046875 115.660156 L 153.46875 107.757812 L 153.671875 106.632812 L 154.484375 102.117188 L 154.691406 100.988281 L 154.894531 99.859375 L 155.097656 98.734375 L 156.316406 91.960938 L 156.519531 90.835938 L 157.738281 84.0625 L 157.941406 82.9375 L 159.160156 76.164062 L 159.363281 75.039062 L 160.785156 67.136719 L 160.988281 66.011719 L 161.394531 63.753906 L 161.601562 62.625 L 162.210938 59.238281 L 162.414062 58.113281 L 163.632812 51.339844 L 163.835938 50.214844 L 165.054688 43.441406 L 165.257812 42.316406 L 166.476562 35.542969 L 166.679688 34.417969 L 168.101562 26.515625 L 168.308594 25.390625 L 169.527344 18.617188 L 169.730469 17.492188 L 170.949219 10.71875 L 171.152344 9.59375 L 172.371094 2.820312 L 172.574219 1.695312 L 173.792969 -5.078125 L 173.996094 -6.203125 L 175.011719 -11.847656 L 175.21875 -12.976562 L 175.421875 -14.105469 L 175.625 -15.230469 L 176.84375 -22.003906 L 177.046875 -23.128906 L 178.265625 -29.902344 L 178.46875 -31.027344 L 179.6875 -37.800781 L 179.890625 -38.925781 L 181.3125 -46.828125 L 181.515625 -47.953125 L 181.71875 -49.082031 L 181.925781 -50.210938 L 182.738281 -54.726562 L 182.941406 -55.851562 L 184.160156 -62.625 L 184.363281 -63.75 L 185.582031 -70.523438 L 185.785156 -71.648438 L 187.003906 -78.421875 L 187.207031 -79.546875 L 188.425781 -86.320312 L 188.632812 -87.449219 L 188.835938 -88.574219 L 190.054688 -95.347656 L 190.257812 -96.472656 L 191.476562 -103.246094 L 191.679688 -104.371094 L 192.898438 -111.144531 L 193.101562 -112.269531 L 194.320312 -119.042969 L 194.523438 -120.167969 L 195.335938 -124.683594 L 195.542969 -125.8125 L 195.949219 -128.070312 L 196.152344 -129.195312 L 197.371094 -135.96875 L 197.574219 -137.09375 L 198.792969 -143.867188 L 198.996094 -144.992188 L 200.214844 -151.765625 L 200.417969 -152.890625 L 201.636719 -159.664062 L 201.839844 -160.789062 L 202.042969 -161.917969 L 202.25 -163.046875 L 203.265625 -168.691406 L 203.46875 -169.816406 L 204.6875 -176.589844 L 204.890625 -177.714844 L 206.109375 -184.488281 L 206.3125 -185.613281 L 207.53125 -192.386719 L 207.734375 -193.511719 L 208.953125 -200.285156 L 209.160156 -201.410156 L 210.582031 -209.3125 L 210.785156 -210.4375 L 212.003906 -217.210938 L 212.207031 -218.335938 L 213.425781 -225.109375 L 213.628906 -226.234375 L 214.847656 -233.007812 L 215.050781 -234.132812 L 215.660156 -237.519531 L 215.867188 -238.648438 L 216.476562 -242.035156 L 216.679688 -243.160156 L 217.898438 -249.933594 L 218.101562 -251.058594 L 219.320312 -257.832031 L 219.523438 -258.957031 L 220.742188 -265.730469 L 220.945312 -266.855469 L 222.164062 -273.628906 L 222.367188 -274.753906 L 222.574219 -275.882812 L 223.792969 -282.65625 L 223.996094 -283.78125 L 225.214844 -290.554688 L 225.417969 -291.679688 L 226.636719 -298.453125 L 226.839844 -299.578125 L 228.058594 -306.351562 L 228.261719 -307.476562 L 229.277344 -313.121094 L 229.484375 -314.25 L 229.6875 -315.375 L 231.109375 -323.277344 L 231.3125 -324.402344 L 232.53125 -331.175781 L 232.734375 -332.300781 L 233.953125 -339.074219 L 234.15625 -340.199219 L 235.375 -346.972656 L 235.578125 -348.097656 L 235.984375 -350.355469 L 236.191406 -351.484375 L 236.800781 -354.871094 L 237.003906 -355.996094 L 238.425781 -363.898438 L 238.628906 -365.023438 L 239.847656 -371.796875 L 240.050781 -372.921875 L 241.269531 -379.695312 L 241.472656 -380.820312 L 242.691406 -387.59375 L 242.894531 -388.71875 L 243.101562 -389.847656 L 244.320312 -396.621094 L 244.523438 -397.746094 L 245.742188 -404.519531 L 245.945312 -405.644531 L 247.164062 -412.417969 L 247.367188 -413.542969 L 248.585938 -420.316406 L 248.789062 -421.441406 L 249.601562 -425.957031 L 249.808594 -427.085938 L 250.011719 -428.214844 L 250.214844 -429.339844 L 251.636719 -437.242188 L 251.839844 -438.367188 L 252.652344 -442.882812 "/>
</g>
<path fill="none" stroke-width="1.49377" stroke-linecap="butt" stroke-linejoin="round" stroke="rgb(100%, 64.705882%, 0%)" stroke-opacity="0.8" stroke-dasharray="1.49377 4.481309" stroke-miterlimit="10" d="M 74.695312 18.011719 L 166.652344 34.574219 "/>
<path fill-rule="nonzero" fill="rgb(0%, 0%, 100%)" fill-opacity="1" stroke-width="0.708661" stroke-linecap="round" stroke-linejoin="round" stroke="rgb(100%, 64.705882%, 0%)" stroke-opacity="1" stroke-miterlimit="10" d="M 166.652344 37.023438 L 169.101562 34.574219 L 166.652344 32.125 L 164.203125 34.574219 Z M 166.652344 37.023438 "/>
</svg>
