<?xml version="1.0" encoding="UTF-8"?>
<svg xmlns="http://www.w3.org/2000/svg" xmlns:xlink="http://www.w3.org/1999/xlink" width="288" height="288" viewBox="0 0 288 288">
<defs>
<clipPath id="clip-0">
<path clip-rule="nonzero" d="M 8.21875 266 L 282.519531 266 L 282.519531 268 L 8.21875 268 Z M 8.21875 266 "/>
</clipPath>
<clipPath id="clip-1">
<path clip-rule="nonzero" d="M 8.21875 183 L 282.519531 183 L 282.519531 185 L 8.21875 185 Z M 8.21875 183 "/>
</clipPath>
<clipPath id="clip-2">
<path clip-rule="nonzero" d="M 8.21875 100 L 282.519531 100 L 282.519531 102 L 8.21875 102 Z M 8.21875 100 "/>
</clipPath>
<clipPath id="clip-3">
<path clip-rule="nonzero" d="M 8.21875 17 L 282.519531 17 L 282.519531 19 L 8.21875 19 Z M 8.21875 17 "/>
</clipPath>
<clipPath id="clip-4">
<path clip-rule="nonzero" d="M 20 5.480469 L 22 5.480469 L 22 279.78125 L 20 279.78125 Z M 20 5.480469 "/>
</clipPath>
<clipPath id="clip-5">
<path clip-rule="nonzero" d="M 103 5.480469 L 105 5.480469 L 105 279.78125 L 103 279.78125 Z M 103 5.480469 "/>
</clipPath>
<clipPath id="clip-6">
<path clip-rule="nonzero" d="M 186 5.480469 L 188 5.480469 L 188 279.78125 L 186 279.78125 Z M 186 5.480469 "/>
</clipPath>
<clipPath id="clip-7">
<path clip-rule="nonzero" d="M 269 5.480469 L 271 5.480469 L 271 279.78125 L 269 279.78125 Z M 269 5.480469 "/>
</clipPath>
<clipPath id="clip-8">
<path clip-rule="nonzero" d="M 8.21875 225 L 282.519531 225 L 282.519531 227 L 8.21875 227 Z M 8.21875 225 "/>
</clipPath>
<clipPath id="clip-9">
<path clip-rule="nonzero" d="M 8.21875 142 L 282.519531 142 L 282.519531 144 L 8.21875 144 Z M 8.21875 142 "/>
</clipPath>
<clipPath id="clip-10">
<path clip-rule="nonzero" d="M 8.21875 58 L 282.519531 58 L 282.519531 61 L 8.21875 61 Z M 8.21875 58 "/>
</clipPath>
<clipPath id="clip-11">
<path clip-rule="nonzero" d="M 61 5.480469 L 63 5.480469 L 63 279.78125 L 61 279.78125 Z M 61 5.480469 "/>
</clipPath>
<clipPath id="clip-12">
<path clip-rule="nonzero" d="M 144 5.480469 L 146 5.480469 L 146 279.78125 L 144 279.78125 Z M 144 5.480469 "/>
</clipPath>
<clipPath id="clip-13">
<path clip-rule="nonzero" d="M 227 5.480469 L 230 5.480469 L 230 279.78125 L 227 279.78125 Z M 227 5.480469 "/>
</clipPath>
<clipPath id="clip-14">
<path clip-rule="nonzero" d="M 8.21875 5.480469 L 282.519531 5.480469 L 282.519531 279.78125 L 8.21875 279.78125 Z M 8.21875 5.480469 "/>
</clipPath>
<clipPath id="clip-15">
<path clip-rule="nonzero" d="M 8.21875 5.480469 L 282.519531 5.480469 L 282.519531 279.78125 L 8.21875 279.78125 Z M 8.21875 5.480469 "/>
</clipPath>
</defs>
<rect x="-28.8" y="-28.8" width="345.6" height="345.6" fill="rgb(100%, 100%, 100%)" fill-opacity="1"/>
<g clip-path="url(#clip-0)">
<path fill="none" stroke-width="1.066978" stroke-linecap="butt" stroke-linejoin="round" stroke="rgb(0%, 0%, 0%)" stroke-opacity="0.0196078" stroke-miterlimit="10" d="M 8.21875 267.3125 L 282.519531 267.3125 "/>
</g>
<g clip-path="url(#clip-1)">
<path fill="none" stroke-width="1.066978" stroke-linecap="butt" stroke-linejoin="round" stroke="rgb(0%, 0%, 0%)" stroke-opacity="0.0196078" stroke-miterlimit="10" d="M 8.21875 184.191406 L 282.519531 184.191406 "/>
</g>
<g clip-path="url(#clip-2)">
<path fill="none" stroke-width="1.066978" stroke-linecap="butt" stroke-linejoin="round" stroke="rgb(0%, 0%, 0%)" stroke-opacity="0.0196078" stroke-miterlimit="10" d="M 8.21875 101.070312 L 282.519531 101.070312 "/>
</g>
<g clip-path="url(#clip-3)">
<path fill="none" stroke-width="1.066978" stroke-linecap="butt" stroke-linejoin="round" stroke="rgb(0%, 0%, 0%)" stroke-opacity="0.0196078" stroke-miterlimit="10" d="M 8.21875 17.949219 L 282.519531 17.949219 "/>
</g>
<g clip-path="url(#clip-4)">
<path fill="none" stroke-width="1.066978" stroke-linecap="butt" stroke-linejoin="round" stroke="rgb(0%, 0%, 0%)" stroke-opacity="0.0196078" stroke-miterlimit="10" d="M 20.6875 279.78125 L 20.6875 5.480469 "/>
</g>
<g clip-path="url(#clip-5)">
<path fill="none" stroke-width="1.066978" stroke-linecap="butt" stroke-linejoin="round" stroke="rgb(0%, 0%, 0%)" stroke-opacity="0.0196078" stroke-miterlimit="10" d="M 103.808594 279.78125 L 103.808594 5.480469 "/>
</g>
<g clip-path="url(#clip-6)">
<path fill="none" stroke-width="1.066978" stroke-linecap="butt" stroke-linejoin="round" stroke="rgb(0%, 0%, 0%)" stroke-opacity="0.0196078" stroke-miterlimit="10" d="M 186.929688 279.78125 L 186.929688 5.480469 "/>
</g>
<g clip-path="url(#clip-7)">
<path fill="none" stroke-width="1.066978" stroke-linecap="butt" stroke-linejoin="round" stroke="rgb(0%, 0%, 0%)" stroke-opacity="0.0196078" stroke-miterlimit="10" d="M 270.050781 279.78125 L 270.050781 5.480469 "/>
</g>
<g clip-path="url(#clip-8)">
<path fill="none" stroke-width="1.066978" stroke-linecap="butt" stroke-linejoin="round" stroke="rgb(0%, 0%, 0%)" stroke-opacity="0.0509804" stroke-miterlimit="10" d="M 8.21875 225.75 L 282.519531 225.75 "/>
</g>
<g clip-path="url(#clip-9)">
<path fill="none" stroke-width="1.066978" stroke-linecap="butt" stroke-linejoin="round" stroke="rgb(0%, 0%, 0%)" stroke-opacity="0.0509804" stroke-miterlimit="10" d="M 8.21875 142.628906 L 282.519531 142.628906 "/>
</g>
<g clip-path="url(#clip-10)">
<path fill="none" stroke-width="1.066978" stroke-linecap="butt" stroke-linejoin="round" stroke="rgb(0%, 0%, 0%)" stroke-opacity="0.0509804" stroke-miterlimit="10" d="M 8.21875 59.507812 L 282.519531 59.507812 "/>
</g>
<g clip-path="url(#clip-11)">
<path fill="none" stroke-width="1.066978" stroke-linecap="butt" stroke-linejoin="round" stroke="rgb(0%, 0%, 0%)" stroke-opacity="0.0509804" stroke-miterlimit="10" d="M 62.25 279.78125 L 62.25 5.480469 "/>
</g>
<g clip-path="url(#clip-12)">
<path fill="none" stroke-width="1.066978" stroke-linecap="butt" stroke-linejoin="round" stroke="rgb(0%, 0%, 0%)" stroke-opacity="0.0509804" stroke-miterlimit="10" d="M 145.371094 279.78125 L 145.371094 5.480469 "/>
</g>
<g clip-path="url(#clip-13)">
<path fill="none" stroke-width="1.066978" stroke-linecap="butt" stroke-linejoin="round" stroke="rgb(0%, 0%, 0%)" stroke-opacity="0.0509804" stroke-miterlimit="10" d="M 228.492188 279.78125 L 228.492188 5.480469 "/>
</g>
<g clip-path="url(#clip-14)">
<path fill-rule="nonzero" fill="rgb(0%, 0%, 100%)" fill-opacity="0.14902" d="M -685.847656 911.503906 L -652.566406 878.222656 L -650.898438 876.558594 L -529.421875 755.082031 L -527.757812 753.414062 L -461.195312 686.851562 L -459.527344 685.1875 L -338.050781 563.710938 L -336.386719 562.042969 L -271.488281 497.144531 L -269.820312 495.480469 L -148.34375 374.003906 L -146.679688 372.335938 L -81.78125 307.4375 L -80.113281 305.773438 L 43.027344 182.632812 L 44.691406 180.964844 L 109.589844 116.066406 L 111.257812 114.402344 L 232.734375 -7.074219 L 234.398438 -8.742188 L 299.296875 -73.640625 L 300.964844 -75.304688 L 422.441406 -196.78125 L 424.105469 -198.449219 L 490.667969 -265.011719 L 492.335938 -266.675781 L 613.8125 -388.152344 L 615.476562 -389.820312 L 680.375 -454.71875 L 682.042969 -456.382812 L 803.519531 -577.859375 L 805.183594 -579.527344 L 870.082031 -644.425781 L 871.75 -646.089844 L 976.585938 -750.925781 L 976.585938 -626.246094 L 939.976562 -589.636719 L 938.3125 -587.96875 L 871.75 -521.40625 L 870.082031 -519.742188 L 748.605469 -398.265625 L 746.941406 -396.597656 L 682.042969 -331.699219 L 680.375 -330.035156 L 558.898438 -208.558594 L 557.234375 -206.890625 L 492.335938 -141.992188 L 490.667969 -140.328125 L 369.191406 -18.851562 L 367.527344 -17.183594 L 300.964844 49.378906 L 299.296875 51.042969 L 177.820312 172.519531 L 176.15625 174.1875 L 111.257812 239.085938 L 109.589844 240.75 L -11.886719 362.226562 L -13.550781 363.894531 L -80.113281 430.457031 L -81.78125 432.121094 L -203.257812 553.597656 L -204.921875 555.265625 L -269.820312 620.164062 L -271.488281 621.828125 L -392.964844 743.304688 L -394.628906 744.972656 L -459.527344 809.871094 L -461.195312 811.535156 L -582.671875 933.011719 L -584.335938 934.679688 L -650.898438 1001.242188 L -652.566406 1002.90625 L -685.847656 1036.1875 Z M -685.847656 911.503906 "/>
<path fill="none" stroke-width="0.853583" stroke-linecap="butt" stroke-linejoin="round" stroke="rgb(82.745098%, 82.745098%, 82.745098%)" stroke-opacity="1" stroke-miterlimit="10" d="M -685.847656 911.503906 L -652.566406 878.222656 L -650.898438 876.558594 L -529.421875 755.082031 L -527.757812 753.414062 L -461.195312 686.851562 L -459.527344 685.1875 L -338.050781 563.710938 L -336.386719 562.042969 L -271.488281 497.144531 L -269.820312 495.480469 L -148.34375 374.003906 L -146.679688 372.335938 L -81.78125 307.4375 L -80.113281 305.773438 L 43.027344 182.632812 L 44.691406 180.964844 L 109.589844 116.066406 L 111.257812 114.402344 L 232.734375 -7.074219 L 234.398438 -8.742188 L 299.296875 -73.640625 L 300.964844 -75.304688 L 422.441406 -196.78125 L 424.105469 -198.449219 L 490.667969 -265.011719 L 492.335938 -266.675781 L 613.8125 -388.152344 L 615.476562 -389.820312 L 680.375 -454.71875 L 682.042969 -456.382812 L 803.519531 -577.859375 L 805.183594 -579.527344 L 870.082031 -644.425781 L 871.75 -646.089844 L 976.585938 -750.925781 "/>
<path fill="none" stroke-width="0.853583" stroke-linecap="butt" stroke-linejoin="round" stroke="rgb(82.745098%, 82.745098%, 82.745098%)" stroke-opacity="1" stroke-miterlimit="10" d="M 976.585938 -626.246094 L 939.976562 -589.636719 L 938.3125 -587.96875 L 871.75 -521.40625 L 870.082031 -519.742188 L 748.605469 -398.265625 L 746.941406 -396.597656 L 682.042969 -331.699219 L 680.375 -330.035156 L 558.898438 -208.558594 L 557.234375 -206.890625 L 492.335938 -141.992188 L 490.667969 -140.328125 L 369.191406 -18.851562 L 367.527344 -17.183594 L 300.964844 49.378906 L 299.296875 51.042969 L 177.820312 172.519531 L 176.15625 174.1875 L 111.257812 239.085938 L 109.589844 240.75 L -11.886719 362.226562 L -13.550781 363.894531 L -80.113281 430.457031 L -81.78125 432.121094 L -203.257812 553.597656 L -204.921875 555.265625 L -269.820312 620.164062 L -271.488281 621.828125 L -392.964844 743.304688 L -394.628906 744.972656 L -459.527344 809.871094 L -461.195312 811.535156 L -582.671875 933.011719 L -584.335938 934.679688 L -650.898438 1001.242188 L -652.566406 1002.90625 L -685.847656 1036.1875 "/>
</g>
<path fill-rule="nonzero" fill="rgb(0%, 0%, 0%)" fill-opacity="1" stroke-width="0.708661" stroke-linecap="round" stroke-linejoin="round" stroke="rgb(0%, 0%, 0%)" stroke-opacity="1" stroke-miterlimit="10" d="M 153.085938 120.734375 C 153.085938 123.34375 149.179688 123.34375 149.179688 120.734375 C 149.179688 118.128906 153.085938 118.128906 153.085938 120.734375 "/>
<path fill-rule="nonzero" fill="rgb(100%, 0%, 0%)" fill-opacity="0.298039" stroke-width="0.853583" stroke-linecap="butt" stroke-linejoin="round" stroke="rgb(82.745098%, 82.745098%, 82.745098%)" stroke-opacity="1" stroke-miterlimit="10" d="M 184.289062 120.734375 L 184.222656 118.652344 L 184.027344 116.578125 L 183.699219 114.515625 L 183.246094 112.480469 L 182.664062 110.480469 L 181.957031 108.519531 L 181.125 106.605469 L 180.179688 104.75 L 179.117188 102.953125 L 177.945312 101.230469 L 176.664062 99.585938 L 175.285156 98.019531 L 173.808594 96.546875 L 172.246094 95.171875 L 170.597656 93.894531 L 168.871094 92.722656 L 167.074219 91.664062 L 165.214844 90.71875 L 163.300781 89.894531 L 161.339844 89.191406 L 159.335938 88.609375 L 157.300781 88.160156 L 155.242188 87.835938 L 153.164062 87.644531 L 151.082031 87.582031 L 148.996094 87.648438 L 146.921875 87.847656 L 144.863281 88.179688 L 142.828125 88.636719 L 140.828125 89.222656 L 138.867188 89.933594 L 136.957031 90.765625 L 135.101562 91.714844 L 133.308594 92.78125 L 131.585938 93.957031 L 129.941406 95.238281 L 128.378906 96.621094 L 126.910156 98.097656 L 125.535156 99.664062 L 124.261719 101.316406 L 123.09375 103.042969 L 122.035156 104.839844 L 121.09375 106.699219 L 120.273438 108.617188 L 119.570312 110.578125 L 118.996094 112.582031 L 118.546875 114.621094 L 118.226562 116.679688 L 118.035156 118.757812 L 117.976562 120.839844 L 118.050781 122.925781 L 118.253906 125 L 118.585938 127.058594 L 119.046875 129.089844 L 119.636719 131.089844 L 120.347656 133.050781 L 121.183594 134.960938 L 122.136719 136.816406 L 123.203125 138.605469 L 124.382812 140.324219 L 125.667969 141.96875 L 127.050781 143.527344 L 128.53125 144.996094 L 130.101562 146.367188 L 131.753906 147.640625 L 133.484375 148.804688 L 135.28125 149.859375 L 137.144531 150.796875 L 139.0625 151.617188 L 141.027344 152.3125 L 143.03125 152.886719 L 145.066406 153.332031 L 147.128906 153.648438 L 149.203125 153.835938 L 151.289062 153.890625 L 153.371094 153.816406 L 155.449219 153.609375 L 157.503906 153.273438 L 159.539062 152.808594 L 161.535156 152.21875 L 163.496094 151.5 L 165.402344 150.664062 L 167.257812 149.707031 L 169.046875 148.636719 L 170.765625 147.453125 L 172.40625 146.167969 L 173.960938 144.78125 L 175.425781 143.296875 L 176.796875 141.726562 L 178.066406 140.070312 L 179.226562 138.339844 L 180.277344 136.539062 L 181.214844 134.675781 L 182.03125 132.757812 L 182.726562 130.792969 L 183.296875 128.789062 L 183.738281 126.75 L 184.050781 124.6875 L 184.234375 122.613281 L 184.289062 120.527344 L 184.210938 118.445312 L 184 116.371094 L 183.660156 114.3125 L 183.191406 112.28125 L 182.597656 110.28125 L 181.878906 108.324219 L 181.039062 106.417969 L 180.078125 104.566406 L 179.003906 102.777344 L 177.820312 101.0625 L 176.53125 99.425781 L 175.140625 97.871094 L 173.65625 96.40625 L 172.082031 95.039062 L 170.425781 93.773438 L 168.695312 92.613281 L 166.890625 91.566406 L 165.027344 90.632812 L 163.105469 89.816406 L 161.140625 89.125 L 159.132812 88.558594 L 157.09375 88.121094 L 155.035156 87.8125 L 152.957031 87.628906 L 150.871094 87.582031 L 148.789062 87.664062 L 146.714844 87.875 L 144.65625 88.21875 L 142.628906 88.691406 L 140.628906 89.289062 L 138.671875 90.011719 L 136.765625 90.855469 L 134.917969 91.816406 L 133.132812 92.890625 L 131.417969 94.078125 L 129.78125 95.371094 L 128.230469 96.761719 L 126.765625 98.25 L 125.402344 99.824219 L 124.140625 101.484375 L 122.980469 103.21875 L 121.9375 105.023438 L 121.007812 106.890625 L 120.195312 108.808594 L 119.507812 110.777344 L 118.945312 112.785156 L 118.507812 114.824219 L 118.203125 116.886719 L 118.023438 118.964844 L 117.980469 121.046875 L 118.0625 123.132812 L 118.28125 125.207031 L 118.625 127.261719 L 119.101562 129.292969 L 119.703125 131.289062 L 120.425781 133.242188 L 121.273438 135.148438 L 122.238281 136.996094 L 123.316406 138.78125 L 124.507812 140.492188 L 125.800781 142.128906 L 127.195312 143.675781 L 128.683594 145.136719 L 130.261719 146.5 L 131.921875 147.761719 L 133.660156 148.914062 L 135.464844 149.957031 L 137.332031 150.882812 L 139.253906 151.691406 L 141.226562 152.375 L 143.234375 152.9375 L 145.273438 153.371094 L 147.335938 153.671875 L 149.414062 153.847656 L 151.496094 153.890625 L 153.582031 153.800781 L 155.652344 153.582031 L 157.710938 153.234375 L 159.738281 152.753906 L 161.734375 152.152344 L 163.6875 151.421875 L 165.59375 150.574219 L 167.4375 149.605469 L 169.222656 148.523438 L 170.933594 147.332031 L 172.5625 146.035156 L 174.113281 144.636719 L 175.570312 143.144531 L 176.929688 141.566406 L 178.1875 139.902344 L 179.339844 138.164062 L 180.378906 136.355469 L 181.300781 134.488281 L 182.105469 132.5625 L 182.789062 130.59375 L 183.347656 128.585938 L 183.777344 126.542969 L 184.074219 124.480469 L 184.246094 122.402344 L 184.285156 120.320312 L 184.195312 118.234375 L 183.972656 116.164062 L 183.617188 114.109375 L 183.136719 112.078125 L 182.53125 110.085938 L 181.800781 108.132812 L 180.945312 106.230469 L 179.976562 104.382812 L 178.890625 102.605469 L 177.695312 100.894531 L 176.398438 99.265625 L 174.996094 97.71875 L 173.503906 96.265625 L 171.921875 94.90625 L 170.257812 93.652344 L 168.515625 92.503906 L 166.707031 91.464844 L 164.835938 90.546875 L 162.914062 89.742188 L 160.941406 89.0625 L 158.929688 88.511719 L 156.890625 88.085938 L 154.828125 87.785156 L 152.75 87.621094 L 150.664062 87.582031 L 148.582031 87.679688 L 146.507812 87.90625 L 144.453125 88.261719 L 142.425781 88.742188 L 140.433594 89.355469 L 138.480469 90.089844 L 136.578125 90.945312 L 134.734375 91.917969 L 132.957031 93.007812 L 131.25 94.203125 L 129.621094 95.503906 L 128.078125 96.90625 L 126.625 98.402344 L 125.269531 99.988281 L 124.019531 101.65625 L 122.871094 103.398438 L 121.839844 105.207031 L 120.921875 107.078125 L 120.121094 109.003906 L 119.445312 110.976562 L 118.894531 112.988281 L 118.472656 115.03125 L 118.175781 117.09375 L 118.015625 119.171875 L 117.980469 121.257812 L 118.078125 123.339844 L 118.308594 125.414062 L 118.667969 127.464844 L 119.15625 129.492188 L 119.769531 131.484375 L 120.507812 133.4375 L 121.363281 135.335938 L 122.339844 137.179688 L 123.429688 138.957031 L 124.632812 140.660156 L 125.9375 142.285156 L 127.339844 143.828125 L 128.839844 145.277344 L 130.425781 146.628906 L 132.09375 147.878906 L 133.835938 149.023438 L 135.648438 150.054688 L 137.523438 150.96875 L 139.449219 151.765625 L 141.425781 152.4375 L 143.4375 152.984375 L 145.476562 153.40625 L 147.542969 153.695312 L 149.621094 153.855469 L 151.707031 153.886719 L 153.789062 153.785156 L 155.859375 153.550781 L 157.914062 153.191406 L 159.941406 152.699219 L 161.933594 152.082031 L 163.882812 151.34375 L 165.78125 150.480469 L 167.621094 149.5 L 169.394531 148.410156 L 171.097656 147.207031 L 172.722656 145.898438 L 174.261719 144.492188 L 175.710938 142.992188 L 177.058594 141.402344 L 178.308594 139.730469 L 179.449219 137.984375 L 180.476562 136.171875 L 181.386719 134.296875 L 182.179688 132.371094 L 182.851562 130.394531 L 183.394531 128.382812 L 183.8125 126.339844 L 184.097656 124.273438 L 184.257812 122.195312 L 184.28125 120.109375 L 184.175781 118.027344 L 183.941406 115.957031 L 183.578125 113.902344 L 183.082031 111.878906 L 182.464844 109.886719 L 181.71875 107.941406 L 180.855469 106.042969 L 179.871094 104.203125 L 178.777344 102.429688 L 177.570312 100.726562 L 176.261719 99.105469 L 174.851562 97.570312 L 173.347656 96.125 L 171.757812 94.777344 L 170.085938 93.53125 L 168.339844 92.394531 L 166.523438 91.367188 L 164.648438 90.460938 L 162.71875 89.671875 L 160.742188 89.003906 L 158.726562 88.460938 L 156.683594 88.046875 L 154.621094 87.765625 L 152.539062 87.609375 L 150.453125 87.585938 L 148.371094 87.695312 L 146.300781 87.933594 L 144.25 88.300781 L 142.222656 88.800781 L 140.234375 89.421875 L 138.289062 90.167969 L 136.390625 91.039062 L 134.554688 92.023438 L 132.78125 93.121094 L 131.082031 94.328125 L 129.464844 95.640625 L 127.929688 97.054688 L 126.484375 98.558594 L 125.140625 100.152344 L 123.898438 101.824219 L 122.765625 103.574219 L 121.742188 105.390625 L 120.835938 107.269531 L 120.046875 109.199219 L 119.386719 111.175781 L 118.847656 113.191406 L 118.4375 115.234375 L 118.15625 117.300781 L 118.003906 119.378906 L 117.984375 121.464844 L 118.097656 123.546875 L 118.339844 125.617188 L 118.710938 127.671875 L 119.210938 129.695312 L 119.835938 131.683594 L 120.585938 133.628906 L 121.457031 135.523438 L 122.445312 137.359375 L 123.546875 139.128906 L 124.757812 140.828125 L 126.074219 142.445312 L 127.484375 143.976562 L 128.992188 145.417969 L 130.589844 146.761719 L 132.265625 148 L 134.015625 149.132812 L 135.835938 150.152344 L 137.714844 151.054688 L 139.644531 151.839844 L 141.625 152.5 L 143.640625 153.035156 L 145.683594 153.441406 L 147.75 153.71875 L 149.828125 153.867188 L 151.914062 153.882812 L 153.996094 153.769531 L 156.066406 153.523438 L 158.117188 153.148438 L 160.140625 152.644531 L 162.128906 152.015625 L 164.074219 151.261719 L 165.964844 150.386719 L 167.800781 149.398438 L 169.570312 148.292969 L 171.265625 147.078125 L 172.878906 145.761719 L 174.410156 144.347656 L 175.847656 142.835938 L 177.1875 141.238281 L 178.425781 139.5625 L 179.554688 137.808594 L 180.570312 135.988281 L 181.472656 134.105469 L 182.253906 132.171875 L 182.910156 130.195312 L 183.441406 128.179688 L 183.847656 126.132812 L 184.121094 124.066406 L 184.265625 121.988281 L 184.277344 119.902344 L 184.160156 117.820312 L 183.910156 115.75 L 183.53125 113.699219 L 183.027344 111.675781 L 182.394531 109.691406 L 181.636719 107.746094 L 180.761719 105.855469 L 179.769531 104.023438 L 178.660156 102.257812 L 177.445312 100.5625 L 176.125 98.949219 L 174.707031 97.421875 L 173.195312 95.984375 L 171.59375 94.648438 L 169.914062 93.414062 L 168.160156 92.285156 L 166.339844 91.273438 L 164.457031 90.375 L 162.523438 89.597656 L 160.542969 88.945312 L 158.523438 88.414062 L 156.480469 88.015625 L 154.410156 87.742188 L 152.332031 87.601562 L 150.246094 87.59375 L 148.164062 87.714844 L 146.09375 87.964844 L 144.046875 88.347656 L 142.023438 88.855469 L 140.039062 89.492188 L 138.097656 90.25 L 136.207031 91.128906 L 134.375 92.128906 L 132.609375 93.238281 L 130.917969 94.457031 L 129.304688 95.777344 L 127.78125 97.199219 L 126.347656 98.714844 L 125.011719 100.316406 L 123.78125 101.996094 L 122.65625 103.753906 L 121.644531 105.578125 L 120.75 107.460938 L 119.976562 109.394531 L 119.324219 111.375 L 118.800781 113.394531 L 118.402344 115.441406 L 118.132812 117.507812 L 117.996094 119.589844 L 117.992188 121.675781 L 118.113281 123.753906 L 118.371094 125.824219 L 118.753906 127.875 L 119.265625 129.894531 L 119.90625 131.878906 L 120.667969 133.820312 L 121.550781 135.710938 L 122.550781 137.539062 L 123.664062 139.300781 L 124.882812 140.992188 L 126.210938 142.601562 L 127.632812 144.125 L 129.148438 145.554688 L 130.753906 146.886719 L 132.4375 148.117188 L 134.195312 149.238281 L 136.019531 150.246094 L 137.90625 151.136719 L 139.84375 151.910156 L 141.824219 152.558594 L 143.84375 153.078125 L 145.890625 153.472656 L 147.957031 153.738281 L 150.039062 153.875 L 152.125 153.875 L 154.203125 153.75 L 156.273438 153.492188 L 158.320312 153.101562 L 160.339844 152.585938 L 162.324219 151.945312 L 164.265625 151.179688 L 166.152344 150.292969 L 167.980469 149.292969 L 169.742188 148.175781 L 171.429688 146.953125 L 173.039062 145.625 L 174.558594 144.199219 L 175.988281 142.679688 L 177.316406 141.074219 L 178.542969 139.386719 L 179.664062 137.628906 L 180.667969 135.800781 L 181.554688 133.917969 L 182.324219 131.976562 L 182.96875 129.996094 L 183.488281 127.976562 L 183.878906 125.929688 L 184.140625 123.859375 L 184.273438 121.777344 L 184.273438 119.695312 L 184.140625 117.613281 L 183.878906 115.542969 L 183.488281 113.496094 L 182.96875 111.476562 L 182.324219 109.492188 L 181.554688 107.554688 L 180.667969 105.667969 L 179.664062 103.84375 L 178.542969 102.082031 L 177.316406 100.398438 L 175.988281 98.792969 L 174.558594 97.273438 L 173.039062 95.847656 L 171.429688 94.519531 L 169.742188 93.296875 L 167.980469 92.179688 L 166.152344 91.175781 L 164.265625 90.292969 L 162.324219 89.527344 L 160.339844 88.886719 L 158.320312 88.367188 L 156.273438 87.980469 L 154.203125 87.722656 L 152.125 87.59375 L 150.039062 87.597656 L 147.957031 87.734375 L 145.890625 87.996094 L 143.84375 88.390625 L 141.824219 88.914062 L 139.84375 89.5625 L 137.90625 90.332031 L 136.019531 91.226562 L 134.195312 92.234375 L 132.4375 93.355469 L 130.753906 94.582031 L 129.148438 95.914062 L 127.632812 97.347656 L 126.210938 98.871094 L 124.882812 100.480469 L 123.664062 102.167969 L 122.550781 103.933594 L 121.550781 105.761719 L 120.667969 107.652344 L 119.90625 109.59375 L 119.265625 111.578125 L 118.753906 113.597656 L 118.371094 115.648438 L 118.113281 117.714844 L 117.992188 119.796875 L 117.996094 121.882812 L 118.132812 123.964844 L 118.402344 126.03125 L 118.800781 128.078125 L 119.324219 130.09375 L 119.976562 132.074219 L 120.75 134.011719 L 121.644531 135.894531 L 122.65625 137.71875 L 123.78125 139.476562 L 125.011719 141.15625 L 126.347656 142.757812 L 127.78125 144.273438 L 129.304688 145.695312 L 130.917969 147.015625 L 132.609375 148.234375 L 134.375 149.34375 L 136.207031 150.339844 L 138.097656 151.222656 L 140.039062 151.980469 L 142.023438 152.617188 L 144.046875 153.125 L 146.09375 153.507812 L 148.164062 153.757812 L 150.246094 153.878906 L 152.332031 153.871094 L 154.410156 153.730469 L 156.480469 153.457031 L 158.523438 153.058594 L 160.542969 152.527344 L 162.523438 151.875 L 164.457031 151.097656 L 166.339844 150.199219 L 168.160156 149.183594 L 169.914062 148.058594 L 171.59375 146.824219 L 173.195312 145.488281 L 174.707031 144.050781 L 176.125 142.523438 L 177.445312 140.910156 L 178.660156 139.214844 L 179.769531 137.449219 L 180.761719 135.617188 L 181.636719 133.722656 L 182.394531 131.78125 L 183.027344 129.792969 L 183.53125 127.773438 L 183.910156 125.722656 L 184.160156 123.652344 L 184.277344 121.570312 L 184.265625 119.484375 L 184.121094 117.40625 L 183.847656 115.339844 L 183.441406 113.292969 L 182.910156 111.277344 L 182.253906 109.296875 L 181.472656 107.363281 L 180.570312 105.484375 L 179.554688 103.664062 L 178.425781 101.910156 L 177.1875 100.234375 L 175.847656 98.636719 L 174.410156 97.125 L 172.878906 95.710938 L 171.265625 94.390625 L 169.570312 93.179688 L 167.800781 92.074219 L 165.964844 91.082031 L 164.074219 90.210938 L 162.128906 89.457031 L 160.140625 88.828125 L 158.117188 88.324219 L 156.066406 87.949219 L 153.996094 87.703125 L 151.914062 87.589844 L 149.828125 87.605469 L 147.75 87.753906 L 145.683594 88.03125 L 143.640625 88.4375 L 141.625 88.972656 L 139.644531 89.632812 L 137.714844 90.417969 L 135.835938 91.320312 L 134.015625 92.339844 L 132.265625 93.472656 L 130.589844 94.710938 L 128.992188 96.054688 L 127.484375 97.496094 L 126.074219 99.027344 L 124.757812 100.644531 L 123.546875 102.34375 L 122.445312 104.113281 L 121.457031 105.949219 L 120.585938 107.84375 L 119.835938 109.789062 L 119.210938 111.777344 L 118.710938 113.800781 L 118.339844 115.851562 L 118.097656 117.925781 L 117.984375 120.007812 L 118.003906 122.089844 L 118.15625 124.171875 L 118.4375 126.238281 L 118.847656 128.28125 L 119.386719 130.296875 L 120.046875 132.273438 L 120.835938 134.203125 L 121.742188 136.082031 L 122.765625 137.898438 L 123.898438 139.644531 L 125.140625 141.320312 L 126.484375 142.914062 L 127.929688 144.417969 L 129.464844 145.832031 L 131.082031 147.144531 L 132.78125 148.351562 L 134.554688 149.449219 L 136.390625 150.433594 L 138.289062 151.300781 L 140.234375 152.050781 L 142.222656 152.671875 L 144.25 153.167969 L 146.300781 153.539062 L 148.371094 153.777344 L 150.453125 153.882812 L 152.539062 153.863281 L 154.621094 153.707031 L 156.683594 153.421875 L 158.726562 153.011719 L 160.742188 152.46875 L 162.71875 151.800781 L 164.648438 151.011719 L 166.523438 150.101562 L 168.339844 149.078125 L 170.085938 147.941406 L 171.757812 146.695312 L 173.347656 145.347656 L 174.851562 143.902344 L 176.261719 142.367188 L 177.570312 140.742188 L 178.777344 139.042969 L 179.871094 137.269531 L 180.855469 135.429688 L 181.71875 133.53125 L 182.464844 131.585938 L 183.082031 129.59375 L 183.578125 127.566406 L 183.941406 125.515625 L 184.175781 123.445312 L 184.28125 121.363281 L 184.257812 119.277344 L 184.097656 117.199219 L 183.8125 115.132812 L 183.394531 113.089844 L 182.851562 111.078125 L 182.179688 109.101562 L 181.386719 107.175781 L 180.476562 105.300781 L 179.449219 103.484375 L 178.308594 101.738281 L 177.058594 100.070312 L 175.710938 98.480469 L 174.261719 96.980469 L 172.722656 95.574219 L 171.097656 94.265625 L 169.394531 93.0625 L 167.621094 91.96875 L 165.78125 90.992188 L 163.882812 90.128906 L 161.933594 89.386719 L 159.941406 88.773438 L 157.914062 88.28125 L 155.859375 87.917969 L 153.789062 87.6875 L 151.707031 87.585938 L 149.621094 87.613281 L 147.542969 87.773438 L 145.476562 88.066406 L 143.4375 88.484375 L 141.425781 89.035156 L 139.449219 89.707031 L 137.523438 90.503906 L 135.648438 91.417969 L 133.835938 92.449219 L 132.09375 93.589844 L 130.425781 94.839844 L 128.839844 96.195312 L 127.339844 97.644531 L 125.9375 99.183594 L 124.632812 100.8125 L 123.429688 102.515625 L 122.339844 104.292969 L 121.363281 106.136719 L 120.507812 108.035156 L 119.769531 109.984375 L 119.15625 111.976562 L 118.667969 114.003906 L 118.308594 116.058594 L 118.078125 118.132812 L 117.980469 120.214844 L 118.015625 122.300781 L 118.175781 124.378906 L 118.472656 126.441406 L 118.894531 128.484375 L 119.445312 130.496094 L 120.121094 132.46875 L 120.921875 134.394531 L 121.839844 136.265625 L 122.871094 138.074219 L 124.019531 139.816406 L 125.269531 141.484375 L 126.625 143.066406 L 128.078125 144.5625 L 129.621094 145.964844 L 131.25 147.269531 L 132.957031 148.464844 L 134.734375 149.554688 L 136.578125 150.527344 L 138.480469 151.382812 L 140.433594 152.117188 L 142.425781 152.726562 L 144.453125 153.210938 L 146.507812 153.566406 L 148.582031 153.792969 L 150.664062 153.886719 L 152.75 153.851562 L 154.828125 153.683594 L 156.890625 153.386719 L 158.929688 152.960938 L 160.941406 152.40625 L 162.914062 151.726562 L 164.835938 150.925781 L 166.707031 150.003906 L 168.515625 148.96875 L 170.257812 147.820312 L 171.921875 146.566406 L 173.503906 145.207031 L 174.996094 143.753906 L 176.398438 142.207031 L 177.695312 140.578125 L 178.890625 138.867188 L 179.976562 137.085938 L 180.945312 135.242188 L 181.800781 133.339844 L 182.53125 131.386719 L 183.136719 129.394531 L 183.617188 127.363281 L 183.972656 125.308594 L 184.195312 123.234375 L 184.285156 121.152344 L 184.246094 119.070312 L 184.074219 116.992188 L 183.777344 114.925781 L 183.347656 112.886719 L 182.789062 110.878906 L 182.105469 108.90625 L 181.300781 106.984375 L 180.378906 105.113281 L 179.339844 103.308594 L 178.1875 101.570312 L 176.929688 99.90625 L 175.570312 98.328125 L 174.113281 96.835938 L 172.5625 95.4375 L 170.933594 94.140625 L 169.222656 92.949219 L 167.4375 91.867188 L 165.59375 90.898438 L 163.6875 90.050781 L 161.734375 89.320312 L 159.738281 88.71875 L 157.710938 88.238281 L 155.652344 87.890625 L 153.582031 87.671875 L 151.496094 87.582031 L 149.414062 87.625 L 147.335938 87.796875 L 145.273438 88.101562 L 143.234375 88.535156 L 141.226562 89.09375 L 139.253906 89.78125 L 137.332031 90.589844 L 135.464844 91.515625 L 133.660156 92.558594 L 131.921875 93.710938 L 130.261719 94.972656 L 128.683594 96.335938 L 127.195312 97.792969 L 125.800781 99.34375 L 124.507812 100.980469 L 123.316406 102.691406 L 122.238281 104.476562 L 121.273438 106.324219 L 120.425781 108.230469 L 119.703125 110.183594 L 119.101562 112.179688 L 118.625 114.210938 L 118.28125 116.265625 L 118.0625 118.339844 L 117.980469 120.421875 L 118.023438 122.507812 L 118.203125 124.585938 L 118.507812 126.648438 L 118.945312 128.6875 L 119.507812 130.695312 L 120.195312 132.660156 L 121.007812 134.582031 L 121.9375 136.449219 L 122.980469 138.253906 L 124.140625 139.988281 L 125.402344 141.644531 L 126.765625 143.222656 L 128.230469 144.707031 L 129.78125 146.101562 L 131.417969 147.394531 L 133.132812 148.578125 L 134.917969 149.65625 L 136.765625 150.617188 L 138.671875 151.460938 L 140.628906 152.183594 L 142.628906 152.78125 L 144.65625 153.253906 L 146.714844 153.597656 L 148.789062 153.808594 L 150.871094 153.890625 L 152.957031 153.839844 L 155.035156 153.660156 L 157.09375 153.351562 L 159.132812 152.910156 L 161.140625 152.34375 L 163.105469 151.652344 L 165.027344 150.839844 L 166.890625 149.90625 L 168.695312 148.859375 L 170.425781 147.699219 L 172.082031 146.433594 L 173.65625 145.066406 L 175.140625 143.601562 L 176.53125 142.046875 L 177.820312 140.410156 L 179.003906 138.691406 L 180.078125 136.90625 L 181.039062 135.054688 L 181.878906 133.148438 L 182.597656 131.191406 L 183.191406 129.191406 L 183.660156 127.160156 L 184 125.101562 L 184.210938 123.027344 L 184.289062 120.945312 L 184.234375 118.859375 L 184.050781 116.785156 L 183.738281 114.722656 L 183.296875 112.683594 L 182.726562 110.679688 L 182.03125 108.714844 L 181.214844 106.792969 L 180.277344 104.929688 L 179.226562 103.128906 L 178.066406 101.398438 L 176.796875 99.746094 L 175.425781 98.171875 L 173.960938 96.691406 L 172.40625 95.304688 L 170.765625 94.015625 L 169.046875 92.835938 L 167.257812 91.765625 L 165.402344 90.808594 L 163.496094 89.972656 L 161.535156 89.253906 L 159.539062 88.664062 L 157.503906 88.199219 L 155.449219 87.863281 L 153.371094 87.65625 L 151.289062 87.582031 L 149.203125 87.636719 L 147.128906 87.824219 L 145.066406 88.140625 L 143.03125 88.585938 L 141.027344 89.160156 L 139.0625 89.855469 L 137.144531 90.675781 L 135.28125 91.613281 L 133.484375 92.667969 L 131.753906 93.832031 L 130.101562 95.105469 L 128.53125 96.476562 L 127.050781 97.945312 L 125.667969 99.503906 L 124.382812 101.144531 L 123.203125 102.867188 L 122.136719 104.65625 L 121.183594 106.511719 L 120.347656 108.421875 L 119.636719 110.382812 L 119.046875 112.382812 L 118.585938 114.414062 L 118.253906 116.472656 L 118.050781 118.546875 L 117.976562 120.632812 L 118.035156 122.714844 L 118.226562 124.792969 L 118.546875 126.851562 L 118.996094 128.886719 L 119.570312 130.890625 L 120.273438 132.855469 L 121.09375 134.773438 L 122.035156 136.632812 L 123.09375 138.429688 L 124.261719 140.15625 L 125.535156 141.808594 L 126.910156 143.375 L 128.378906 144.851562 L 129.941406 146.234375 L 131.585938 147.515625 L 133.308594 148.691406 L 135.101562 149.757812 L 136.957031 150.707031 L 138.867188 151.539062 L 140.828125 152.25 L 142.828125 152.835938 L 144.863281 153.292969 L 146.921875 153.621094 L 148.996094 153.824219 L 151.082031 153.890625 L 153.164062 153.828125 L 155.242188 153.636719 L 157.300781 153.3125 L 159.335938 152.859375 L 161.339844 152.28125 L 163.300781 151.578125 L 165.214844 150.753906 L 167.074219 149.808594 L 168.871094 148.746094 L 170.597656 147.578125 L 172.246094 146.300781 L 173.808594 144.925781 L 175.285156 143.449219 L 176.664062 141.886719 L 177.945312 140.242188 L 179.117188 138.515625 L 180.179688 136.722656 L 181.125 134.867188 L 181.957031 132.953125 L 182.664062 130.992188 L 183.246094 128.988281 L 183.699219 126.953125 L 184.027344 124.894531 L 184.222656 122.820312 Z M 184.289062 120.734375 "/>
<path fill="none" stroke-width="2.133957" stroke-linecap="butt" stroke-linejoin="round" stroke="rgb(100%, 64.705882%, 0%)" stroke-opacity="1" stroke-miterlimit="10" d="M 151.132812 120.734375 L 74.695312 18.011719 "/>
<path fill-rule="nonzero" fill="rgb(100%, 64.705882%, 0%)" fill-opacity="1" stroke-width="2.133957" stroke-linecap="butt" stroke-linejoin="round" stroke="rgb(100%, 64.705882%, 0%)" stroke-opacity="1" stroke-miterlimit="10" d="M 79.902344 20.257812 L 74.695312 18.011719 L 75.351562 23.640625 Z M 79.902344 20.257812 "/>
<path fill="none" stroke-width="2.133957" stroke-linecap="butt" stroke-linejoin="round" stroke="rgb(0%, 0%, 100%)" stroke-opacity="1" stroke-miterlimit="10" d="M 151.132812 120.734375 L 132.003906 93.65625 "/>
<path fill-rule="nonzero" fill="rgb(0%, 0%, 100%)" fill-opacity="1" stroke-width="2.133957" stroke-linecap="butt" stroke-linejoin="round" stroke="rgb(0%, 0%, 100%)" stroke-opacity="1" stroke-miterlimit="10" d="M 137.152344 96.03125 L 132.003906 93.65625 L 132.519531 99.300781 Z M 137.152344 96.03125 "/>
<g clip-path="url(#clip-15)">
<path fill="none" stroke-width="1.49377" stroke-linecap="butt" stroke-linejoin="round" stroke="rgb(0%, 0%, 100%)" stroke-opacity="0.8" stroke-dasharray="1.49377 4.481309" stroke-miterlimit="10" d="M -40.15625 -150.074219 L -39.773438 -149.53125 L -39.390625 -148.992188 L -37.859375 -146.820312 L -37.476562 -146.28125 L -37.089844 -145.738281 L -35.941406 -144.109375 L -35.558594 -143.570312 L -34.027344 -141.398438 L -33.644531 -140.859375 L -32.113281 -138.6875 L -31.730469 -138.148438 L -30.199219 -135.976562 L -29.816406 -135.4375 L -28.285156 -133.265625 L -27.902344 -132.726562 L -27.136719 -131.640625 L -26.75 -131.097656 L -26.367188 -130.558594 L -24.835938 -128.386719 L -24.453125 -127.847656 L -22.921875 -125.675781 L -22.539062 -125.136719 L -21.007812 -122.964844 L -20.625 -122.425781 L -19.09375 -120.253906 L -18.710938 -119.714844 L -17.179688 -117.542969 L -16.792969 -117.003906 L -15.644531 -115.375 L -15.261719 -114.835938 L -13.730469 -112.664062 L -13.347656 -112.125 L -11.816406 -109.953125 L -11.433594 -109.414062 L -9.902344 -107.242188 L -9.519531 -106.703125 L -7.988281 -104.53125 L -7.605469 -103.992188 L -6.839844 -102.90625 L -6.453125 -102.363281 L -6.070312 -101.820312 L -5.6875 -101.28125 L -4.15625 -99.109375 L -3.773438 -98.570312 L -2.625 -96.941406 L -2.242188 -96.402344 L -0.710938 -94.230469 L -0.328125 -93.691406 L 1.203125 -91.519531 L 1.585938 -90.980469 L 3.117188 -88.808594 L 3.5 -88.269531 L 3.886719 -87.726562 L 5.035156 -86.097656 L 5.417969 -85.558594 L 6.949219 -83.386719 L 7.332031 -82.847656 L 8.863281 -80.675781 L 9.246094 -80.136719 L 10.394531 -78.507812 L 10.777344 -77.96875 L 12.308594 -75.796875 L 12.691406 -75.257812 L 13.457031 -74.171875 L 13.84375 -73.628906 L 14.226562 -73.085938 L 14.609375 -72.546875 L 16.140625 -70.375 L 16.523438 -69.835938 L 18.054688 -67.664062 L 18.4375 -67.125 L 19.96875 -64.953125 L 20.351562 -64.414062 L 21.5 -62.785156 L 21.882812 -62.246094 L 23.414062 -60.074219 L 23.796875 -59.535156 L 24.183594 -58.992188 L 25.332031 -57.363281 L 25.714844 -56.824219 L 27.246094 -54.652344 L 27.628906 -54.113281 L 29.160156 -51.941406 L 29.542969 -51.402344 L 31.074219 -49.230469 L 31.457031 -48.691406 L 32.988281 -46.519531 L 33.371094 -45.980469 L 33.753906 -45.4375 L 34.140625 -44.894531 L 34.523438 -44.351562 L 34.90625 -43.8125 L 36.4375 -41.640625 L 36.820312 -41.101562 L 38.351562 -38.929688 L 38.734375 -38.390625 L 40.265625 -36.21875 L 40.648438 -35.679688 L 42.179688 -33.507812 L 42.5625 -32.96875 L 44.09375 -30.796875 L 44.480469 -30.257812 L 46.011719 -28.085938 L 46.394531 -27.546875 L 47.542969 -25.917969 L 47.925781 -25.378906 L 49.457031 -23.207031 L 49.839844 -22.667969 L 51.371094 -20.496094 L 51.753906 -19.957031 L 53.285156 -17.785156 L 53.667969 -17.246094 L 54.433594 -16.160156 L 54.820312 -15.617188 L 55.203125 -15.074219 L 55.585938 -14.535156 L 57.117188 -12.363281 L 57.5 -11.824219 L 58.648438 -10.195312 L 59.03125 -9.65625 L 60.5625 -7.484375 L 60.945312 -6.945312 L 62.476562 -4.773438 L 62.859375 -4.234375 L 64.390625 -2.0625 L 64.777344 -1.523438 L 66.308594 0.648438 L 66.691406 1.1875 L 68.222656 3.359375 L 68.605469 3.898438 L 70.136719 6.070312 L 70.519531 6.609375 L 71.667969 8.238281 L 72.050781 8.777344 L 73.582031 10.949219 L 73.964844 11.488281 L 74.730469 12.574219 L 75.117188 13.117188 L 75.5 13.660156 L 75.882812 14.199219 L 77.414062 16.371094 L 77.796875 16.910156 L 79.328125 19.082031 L 79.710938 19.621094 L 81.242188 21.792969 L 81.625 22.332031 L 82.773438 23.960938 L 83.15625 24.5 L 84.6875 26.671875 L 85.070312 27.210938 L 85.457031 27.753906 L 86.605469 29.382812 L 86.988281 29.921875 L 88.519531 32.09375 L 88.902344 32.632812 L 90.433594 34.804688 L 90.816406 35.34375 L 92.347656 37.515625 L 92.730469 38.054688 L 94.261719 40.226562 L 94.644531 40.765625 L 95.027344 41.308594 L 95.414062 41.851562 L 95.796875 42.394531 L 96.179688 42.933594 L 97.710938 45.105469 L 98.09375 45.644531 L 99.625 47.816406 L 100.007812 48.355469 L 101.539062 50.527344 L 101.921875 51.066406 L 103.453125 53.238281 L 103.835938 53.777344 L 105.367188 55.949219 L 105.753906 56.488281 L 107.285156 58.660156 L 107.667969 59.199219 L 108.816406 60.828125 L 109.199219 61.367188 L 110.730469 63.539062 L 111.113281 64.078125 L 112.644531 66.25 L 113.027344 66.789062 L 114.558594 68.960938 L 114.941406 69.5 L 115.324219 70.042969 L 115.710938 70.585938 L 116.476562 71.671875 L 116.859375 72.210938 L 118.390625 74.382812 L 118.773438 74.921875 L 119.921875 76.550781 L 120.304688 77.089844 L 121.835938 79.261719 L 122.21875 79.800781 L 123.75 81.972656 L 124.132812 82.511719 L 125.664062 84.683594 L 126.050781 85.222656 L 127.582031 87.394531 L 127.964844 87.933594 L 129.496094 90.105469 L 129.878906 90.644531 L 131.410156 92.816406 L 131.792969 93.355469 L 132.941406 94.984375 L 133.324219 95.523438 L 134.855469 97.695312 L 135.238281 98.234375 L 136.003906 99.320312 L 136.390625 99.863281 L 136.773438 100.40625 L 137.15625 100.945312 L 138.6875 103.117188 L 139.070312 103.65625 L 140.601562 105.828125 L 140.984375 106.367188 L 142.515625 108.539062 L 142.898438 109.078125 L 144.429688 111.25 L 144.8125 111.789062 L 145.960938 113.417969 L 146.347656 113.957031 L 147.878906 116.128906 L 148.261719 116.667969 L 149.792969 118.839844 L 150.175781 119.378906 L 151.707031 121.550781 L 152.089844 122.089844 L 153.621094 124.261719 L 154.003906 124.800781 L 155.535156 126.972656 L 155.917969 127.511719 L 156.300781 128.054688 L 156.6875 128.597656 L 157.070312 129.140625 L 157.453125 129.679688 L 158.984375 131.851562 L 159.367188 132.390625 L 160.898438 134.5625 L 161.28125 135.101562 L 162.8125 137.273438 L 163.195312 137.8125 L 164.726562 139.984375 L 165.109375 140.523438 L 166.640625 142.695312 L 167.027344 143.234375 L 168.558594 145.40625 L 168.941406 145.945312 L 170.089844 147.574219 L 170.472656 148.113281 L 172.003906 150.285156 L 172.386719 150.824219 L 173.917969 152.996094 L 174.300781 153.535156 L 175.832031 155.707031 L 176.214844 156.246094 L 176.597656 156.789062 L 176.984375 157.332031 L 177.75 158.417969 L 178.132812 158.957031 L 179.664062 161.128906 L 180.046875 161.667969 L 181.578125 163.839844 L 181.960938 164.378906 L 183.109375 166.007812 L 183.492188 166.546875 L 185.023438 168.71875 L 185.40625 169.257812 L 186.9375 171.429688 L 187.324219 171.96875 L 188.855469 174.140625 L 189.238281 174.679688 L 190.769531 176.851562 L 191.152344 177.390625 L 192.683594 179.5625 L 193.066406 180.101562 L 194.214844 181.730469 L 194.597656 182.269531 L 196.128906 184.441406 L 196.511719 184.980469 L 196.894531 185.523438 L 197.28125 186.066406 L 198.046875 187.152344 L 198.429688 187.691406 L 199.960938 189.863281 L 200.34375 190.402344 L 201.875 192.574219 L 202.257812 193.113281 L 203.789062 195.285156 L 204.171875 195.824219 L 205.703125 197.996094 L 206.085938 198.535156 L 207.234375 200.164062 L 207.621094 200.703125 L 209.152344 202.875 L 209.535156 203.414062 L 211.066406 205.585938 L 211.449219 206.125 L 212.980469 208.296875 L 213.363281 208.835938 L 214.894531 211.007812 L 215.277344 211.546875 L 216.808594 213.71875 L 217.191406 214.257812 L 217.574219 214.800781 L 217.960938 215.34375 L 218.726562 216.429688 L 219.109375 216.96875 L 220.257812 218.597656 L 220.640625 219.136719 L 222.171875 221.308594 L 222.554688 221.847656 L 224.085938 224.019531 L 224.46875 224.558594 L 226 226.730469 L 226.382812 227.269531 L 227.53125 228.898438 L 227.917969 229.441406 L 228.300781 229.980469 L 229.832031 232.152344 L 230.214844 232.691406 L 231.363281 234.320312 L 231.746094 234.859375 L 233.277344 237.03125 L 233.660156 237.570312 L 235.191406 239.742188 L 235.574219 240.28125 L 237.105469 242.453125 L 237.488281 242.992188 L 237.871094 243.535156 L 238.257812 244.078125 L 239.023438 245.164062 L 239.40625 245.703125 L 240.9375 247.875 L 241.320312 248.414062 L 242.851562 250.585938 L 243.234375 251.125 L 244.382812 252.753906 L 244.765625 253.292969 L 246.296875 255.464844 L 246.679688 256.003906 L 248.210938 258.175781 L 248.597656 258.714844 L 250.128906 260.886719 L 250.511719 261.425781 L 252.042969 263.597656 L 252.425781 264.136719 L 253.957031 266.308594 L 254.339844 266.847656 L 255.488281 268.476562 L 255.871094 269.015625 L 257.402344 271.1875 L 257.785156 271.726562 L 258.167969 272.269531 L 258.554688 272.8125 L 259.320312 273.898438 L 259.703125 274.4375 L 261.234375 276.609375 L 261.617188 277.148438 L 263.148438 279.320312 L 263.53125 279.859375 L 265.0625 282.03125 L 265.445312 282.570312 L 266.976562 284.742188 L 267.359375 285.28125 L 268.507812 286.910156 L 268.894531 287.449219 L 270.425781 289.621094 L 270.808594 290.160156 L 272.339844 292.332031 L 272.722656 292.871094 L 274.253906 295.042969 L 274.636719 295.582031 L 276.167969 297.753906 L 276.550781 298.292969 L 278.082031 300.464844 L 278.464844 301.003906 L 278.851562 301.546875 L 280 303.175781 L 280.382812 303.714844 L 281.53125 305.34375 L 281.914062 305.882812 L 283.445312 308.054688 L 283.828125 308.59375 L 285.359375 310.765625 L 285.742188 311.304688 L 287.273438 313.476562 L 287.65625 314.015625 L 288.804688 315.644531 L 289.191406 316.1875 L 289.574219 316.726562 L 291.105469 318.898438 L 291.488281 319.4375 L 292.636719 321.066406 L 293.019531 321.605469 L 294.550781 323.777344 L 294.933594 324.316406 L 296.464844 326.488281 L 296.847656 327.027344 L 298.378906 329.199219 L 298.761719 329.738281 L 299.144531 330.28125 L 299.53125 330.824219 L 300.296875 331.910156 L 300.679688 332.449219 L 302.210938 334.621094 L 302.59375 335.160156 L 304.125 337.332031 L 304.507812 337.871094 L 305.65625 339.5 L 306.039062 340.039062 L 307.570312 342.210938 L 307.953125 342.75 L 309.101562 344.378906 L 309.488281 344.921875 L 309.871094 345.460938 L 311.402344 347.632812 L 311.785156 348.171875 L 313.316406 350.34375 L 313.699219 350.882812 L 315.230469 353.054688 L 315.613281 353.59375 L 317.144531 355.765625 L 317.527344 356.304688 L 318.675781 357.933594 L 319.058594 358.472656 L 319.441406 359.015625 L 319.828125 359.558594 L 320.59375 360.644531 L 320.976562 361.183594 L 322.507812 363.355469 L 322.890625 363.894531 L 324.421875 366.066406 L 324.804688 366.605469 L 326.335938 368.777344 L 326.71875 369.316406 L 328.25 371.488281 L 328.632812 372.027344 L 329.78125 373.65625 L 330.167969 374.195312 L 331.699219 376.367188 L 332.082031 376.90625 L 333.613281 379.078125 L 333.996094 379.617188 L 335.527344 381.789062 L 335.910156 382.328125 L 337.441406 384.5 L 337.824219 385.039062 L 339.355469 387.210938 L 339.738281 387.75 L 340.125 388.292969 L 341.273438 389.921875 L 341.65625 390.460938 L 342.421875 391.546875 "/>
</g>
<path fill="none" stroke-width="1.49377" stroke-linecap="butt" stroke-linejoin="round" stroke="rgb(100%, 64.705882%, 0%)" stroke-opacity="0.8" stroke-dasharray="1.49377 4.481309" stroke-miterlimit="10" d="M 74.695312 18.011719 L 77.28125 16.183594 "/>
<path fill-rule="nonzero" fill="rgb(0%, 0%, 100%)" fill-opacity="1" stroke-width="0.708661" stroke-linecap="round" stroke-linejoin="round" stroke="rgb(100%, 64.705882%, 0%)" stroke-opacity="1" stroke-miterlimit="10" d="M 77.28125 18.632812 L 79.730469 16.183594 L 77.28125 13.734375 L 74.832031 16.183594 Z M 77.28125 18.632812 "/>
</svg>
