<?xml version="1.0" encoding="UTF-8"?>
<svg xmlns="http://www.w3.org/2000/svg" xmlns:xlink="http://www.w3.org/1999/xlink" width="288" height="288" viewBox="0 0 288 288">
<defs>
<clipPath id="clip-0">
<path clip-rule="nonzero" d="M 8.21875 266 L 282.519531 266 L 282.519531 268 L 8.21875 268 Z M 8.21875 266 "/>
</clipPath>
<clipPath id="clip-1">
<path clip-rule="nonzero" d="M 8.21875 183 L 282.519531 183 L 282.519531 185 L 8.21875 185 Z M 8.21875 183 "/>
</clipPath>
<clipPath id="clip-2">
<path clip-rule="nonzero" d="M 8.21875 100 L 282.519531 100 L 282.519531 102 L 8.21875 102 Z M 8.21875 100 "/>
</clipPath>
<clipPath id="clip-3">
<path clip-rule="nonzero" d="M 8.21875 17 L 282.519531 17 L 282.519531 19 L 8.21875 19 Z M 8.21875 17 "/>
</clipPath>
<clipPath id="clip-4">
<path clip-rule="nonzero" d="M 20 5.480469 L 22 5.480469 L 22 279.78125 L 20 279.78125 Z M 20 5.480469 "/>
</clipPath>
<clipPath id="clip-5">
<path clip-rule="nonzero" d="M 103 5.480469 L 105 5.480469 L 105 279.78125 L 103 279.78125 Z M 103 5.480469 "/>
</clipPath>
<clipPath id="clip-6">
<path clip-rule="nonzero" d="M 186 5.480469 L 188 5.480469 L 188 279.78125 L 186 279.78125 Z M 186 5.480469 "/>
</clipPath>
<clipPath id="clip-7">
<path clip-rule="nonzero" d="M 269 5.480469 L 271 5.480469 L 271 279.78125 L 269 279.78125 Z M 269 5.480469 "/>
</clipPath>
<clipPath id="clip-8">
<path clip-rule="nonzero" d="M 8.21875 225 L 282.519531 225 L 282.519531 227 L 8.21875 227 Z M 8.21875 225 "/>
</clipPath>
<clipPath id="clip-9">
<path clip-rule="nonzero" d="M 8.21875 142 L 282.519531 142 L 282.519531 144 L 8.21875 144 Z M 8.21875 142 "/>
</clipPath>
<clipPath id="clip-10">
<path clip-rule="nonzero" d="M 8.21875 58 L 282.519531 58 L 282.519531 61 L 8.21875 61 Z M 8.21875 58 "/>
</clipPath>
<clipPath id="clip-11">
<path clip-rule="nonzero" d="M 61 5.480469 L 63 5.480469 L 63 279.78125 L 61 279.78125 Z M 61 5.480469 "/>
</clipPath>
<clipPath id="clip-12">
<path clip-rule="nonzero" d="M 144 5.480469 L 146 5.480469 L 146 279.78125 L 144 279.78125 Z M 144 5.480469 "/>
</clipPath>
<clipPath id="clip-13">
<path clip-rule="nonzero" d="M 227 5.480469 L 230 5.480469 L 230 279.78125 L 227 279.78125 Z M 227 5.480469 "/>
</clipPath>
<clipPath id="clip-14">
<path clip-rule="nonzero" d="M 8.21875 5.480469 L 282.519531 5.480469 L 282.519531 279.78125 L 8.21875 279.78125 Z M 8.21875 5.480469 "/>
</clipPath>
<clipPath id="clip-15">
<path clip-rule="nonzero" d="M 8.21875 5.480469 L 282.519531 5.480469 L 282.519531 279.78125 L 8.21875 279.78125 Z M 8.21875 5.480469 "/>
</clipPath>
</defs>
<rect x="-28.8" y="-28.8" width="345.6" height="345.6" fill="rgb(100%, 100%, 100%)" fill-opacity="1"/>
<g clip-path="url(#clip-0)">
<path fill="none" stroke-width="1.066978" stroke-linecap="butt" stroke-linejoin="round" stroke="rgb(0%, 0%, 0%)" stroke-opacity="0.0196078" stroke-miterlimit="10" d="M 8.21875 267.3125 L 282.519531 267.3125 "/>
</g>
<g clip-path="url(#clip-1)">
<path fill="none" stroke-width="1.066978" stroke-linecap="butt" stroke-linejoin="round" stroke="rgb(0%, 0%, 0%)" stroke-opacity="0.0196078" stroke-miterlimit="10" d="M 8.21875 184.191406 L 282.519531 184.191406 "/>
</g>
<g clip-path="url(#clip-2)">
<path fill="none" stroke-width="1.066978" stroke-linecap="butt" stroke-linejoin="round" stroke="rgb(0%, 0%, 0%)" stroke-opacity="0.0196078" stroke-miterlimit="10" d="M 8.21875 101.070312 L 282.519531 101.070312 "/>
</g>
<g clip-path="url(#clip-3)">
<path fill="none" stroke-width="1.066978" stroke-linecap="butt" stroke-linejoin="round" stroke="rgb(0%, 0%, 0%)" stroke-opacity="0.0196078" stroke-miterlimit="10" d="M 8.21875 17.949219 L 282.519531 17.949219 "/>
</g>
<g clip-path="url(#clip-4)">
<path fill="none" stroke-width="1.066978" stroke-linecap="butt" stroke-linejoin="round" stroke="rgb(0%, 0%, 0%)" stroke-opacity="0.0196078" stroke-miterlimit="10" d="M 20.6875 279.78125 L 20.6875 5.480469 "/>
</g>
<g clip-path="url(#clip-5)">
<path fill="none" stroke-width="1.066978" stroke-linecap="butt" stroke-linejoin="round" stroke="rgb(0%, 0%, 0%)" stroke-opacity="0.0196078" stroke-miterlimit="10" d="M 103.808594 279.78125 L 103.808594 5.480469 "/>
</g>
<g clip-path="url(#clip-6)">
<path fill="none" stroke-width="1.066978" stroke-linecap="butt" stroke-linejoin="round" stroke="rgb(0%, 0%, 0%)" stroke-opacity="0.0196078" stroke-miterlimit="10" d="M 186.929688 279.78125 L 186.929688 5.480469 "/>
</g>
<g clip-path="url(#clip-7)">
<path fill="none" stroke-width="1.066978" stroke-linecap="butt" stroke-linejoin="round" stroke="rgb(0%, 0%, 0%)" stroke-opacity="0.0196078" stroke-miterlimit="10" d="M 270.050781 279.78125 L 270.050781 5.480469 "/>
</g>
<g clip-path="url(#clip-8)">
<path fill="none" stroke-width="1.066978" stroke-linecap="butt" stroke-linejoin="round" stroke="rgb(0%, 0%, 0%)" stroke-opacity="0.0509804" stroke-miterlimit="10" d="M 8.21875 225.75 L 282.519531 225.75 "/>
</g>
<g clip-path="url(#clip-9)">
<path fill="none" stroke-width="1.066978" stroke-linecap="butt" stroke-linejoin="round" stroke="rgb(0%, 0%, 0%)" stroke-opacity="0.0509804" stroke-miterlimit="10" d="M 8.21875 142.628906 L 282.519531 142.628906 "/>
</g>
<g clip-path="url(#clip-10)">
<path fill="none" stroke-width="1.066978" stroke-linecap="butt" stroke-linejoin="round" stroke="rgb(0%, 0%, 0%)" stroke-opacity="0.0509804" stroke-miterlimit="10" d="M 8.21875 59.507812 L 282.519531 59.507812 "/>
</g>
<g clip-path="url(#clip-11)">
<path fill="none" stroke-width="1.066978" stroke-linecap="butt" stroke-linejoin="round" stroke="rgb(0%, 0%, 0%)" stroke-opacity="0.0509804" stroke-miterlimit="10" d="M 62.25 279.78125 L 62.25 5.480469 "/>
</g>
<g clip-path="url(#clip-12)">
<path fill="none" stroke-width="1.066978" stroke-linecap="butt" stroke-linejoin="round" stroke="rgb(0%, 0%, 0%)" stroke-opacity="0.0509804" stroke-miterlimit="10" d="M 145.371094 279.78125 L 145.371094 5.480469 "/>
</g>
<g clip-path="url(#clip-13)">
<path fill="none" stroke-width="1.066978" stroke-linecap="butt" stroke-linejoin="round" stroke="rgb(0%, 0%, 0%)" stroke-opacity="0.0509804" stroke-miterlimit="10" d="M 228.492188 279.78125 L 228.492188 5.480469 "/>
</g>
<g clip-path="url(#clip-14)">
<path fill-rule="nonzero" fill="rgb(0%, 0%, 100%)" fill-opacity="0.14902" d="M -685.847656 911.503906 L -652.566406 878.222656 L -650.898438 876.558594 L -529.421875 755.082031 L -527.757812 753.414062 L -461.195312 686.851562 L -459.527344 685.1875 L -338.050781 563.710938 L -336.386719 562.042969 L -271.488281 497.144531 L -269.820312 495.480469 L -148.34375 374.003906 L -146.679688 372.335938 L -81.78125 307.4375 L -80.113281 305.773438 L 43.027344 182.632812 L 44.691406 180.964844 L 109.589844 116.066406 L 111.257812 114.402344 L 232.734375 -7.074219 L 234.398438 -8.742188 L 299.296875 -73.640625 L 300.964844 -75.304688 L 422.441406 -196.78125 L 424.105469 -198.449219 L 490.667969 -265.011719 L 492.335938 -266.675781 L 613.8125 -388.152344 L 615.476562 -389.820312 L 680.375 -454.71875 L 682.042969 -456.382812 L 803.519531 -577.859375 L 805.183594 -579.527344 L 870.082031 -644.425781 L 871.75 -646.089844 L 976.585938 -750.925781 L 976.585938 -626.246094 L 939.976562 -589.636719 L 938.3125 -587.96875 L 871.75 -521.40625 L 870.082031 -519.742188 L 748.605469 -398.265625 L 746.941406 -396.597656 L 682.042969 -331.699219 L 680.375 -330.035156 L 558.898438 -208.558594 L 557.234375 -206.890625 L 492.335938 -141.992188 L 490.667969 -140.328125 L 369.191406 -18.851562 L 367.527344 -17.183594 L 300.964844 49.378906 L 299.296875 51.042969 L 177.820312 172.519531 L 176.15625 174.1875 L 111.257812 239.085938 L 109.589844 240.75 L -11.886719 362.226562 L -13.550781 363.894531 L -80.113281 430.457031 L -81.78125 432.121094 L -203.257812 553.597656 L -204.921875 555.265625 L -269.820312 620.164062 L -271.488281 621.828125 L -392.964844 743.304688 L -394.628906 744.972656 L -459.527344 809.871094 L -461.195312 811.535156 L -582.671875 933.011719 L -584.335938 934.679688 L -650.898438 1001.242188 L -652.566406 1002.90625 L -685.847656 1036.1875 Z M -685.847656 911.503906 "/>
<path fill="none" stroke-width="0.853583" stroke-linecap="butt" stroke-linejoin="round" stroke="rgb(82.745098%, 82.745098%, 82.745098%)" stroke-opacity="1" stroke-miterlimit="10" d="M -685.847656 911.503906 L -652.566406 878.222656 L -650.898438 876.558594 L -529.421875 755.082031 L -527.757812 753.414062 L -461.195312 686.851562 L -459.527344 685.1875 L -338.050781 563.710938 L -336.386719 562.042969 L -271.488281 497.144531 L -269.820312 495.480469 L -148.34375 374.003906 L -146.679688 372.335938 L -81.78125 307.4375 L -80.113281 305.773438 L 43.027344 182.632812 L 44.691406 180.964844 L 109.589844 116.066406 L 111.257812 114.402344 L 232.734375 -7.074219 L 234.398438 -8.742188 L 299.296875 -73.640625 L 300.964844 -75.304688 L 422.441406 -196.78125 L 424.105469 -198.449219 L 490.667969 -265.011719 L 492.335938 -266.675781 L 613.8125 -388.152344 L 615.476562 -389.820312 L 680.375 -454.71875 L 682.042969 -456.382812 L 803.519531 -577.859375 L 805.183594 -579.527344 L 870.082031 -644.425781 L 871.75 -646.089844 L 976.585938 -750.925781 "/>
<path fill="none" stroke-width="0.853583" stroke-linecap="butt" stroke-linejoin="round" stroke="rgb(82.745098%, 82.745098%, 82.745098%)" stroke-opacity="1" stroke-miterlimit="10" d="M 976.585938 -626.246094 L 939.976562 -589.636719 L 938.3125 -587.96875 L 871.75 -521.40625 L 870.082031 -519.742188 L 748.605469 -398.265625 L 746.941406 -396.597656 L 682.042969 -331.699219 L 680.375 -330.035156 L 558.898438 -208.558594 L 557.234375 -206.890625 L 492.335938 -141.992188 L 490.667969 -140.328125 L 369.191406 -18.851562 L 367.527344 -17.183594 L 300.964844 49.378906 L 299.296875 51.042969 L 177.820312 172.519531 L 176.15625 174.1875 L 111.257812 239.085938 L 109.589844 240.75 L -11.886719 362.226562 L -13.550781 363.894531 L -80.113281 430.457031 L -81.78125 432.121094 L -203.257812 553.597656 L -204.921875 555.265625 L -269.820312 620.164062 L -271.488281 621.828125 L -392.964844 743.304688 L -394.628906 744.972656 L -459.527344 809.871094 L -461.195312 811.535156 L -582.671875 933.011719 L -584.335938 934.679688 L -650.898438 1001.242188 L -652.566406 1002.90625 L -685.847656 1036.1875 "/>
</g>
<path fill-rule="nonzero" fill="rgb(0%, 0%, 0%)" fill-opacity="1" stroke-width="0.708661" stroke-linecap="round" stroke-linejoin="round" stroke="rgb(0%, 0%, 0%)" stroke-opacity="1" stroke-miterlimit="10" d="M 153.085938 120.734375 C 153.085938 123.34375 149.179688 123.34375 149.179688 120.734375 C 149.179688 118.128906 153.085938 118.128906 153.085938 120.734375 "/>
<path fill-rule="nonzero" fill="rgb(100%, 0%, 0%)" fill-opacity="0.298039" stroke-width="0.853583" stroke-linecap="butt" stroke-linejoin="round" stroke="rgb(82.745098%, 82.745098%, 82.745098%)" stroke-opacity="1" stroke-miterlimit="10" d="M 232.515625 120.734375 L 232.355469 115.621094 L 231.871094 110.527344 L 231.070312 105.472656 L 229.953125 100.476562 L 228.523438 95.5625 L 226.789062 90.75 L 224.753906 86.054688 L 222.429688 81.492188 L 219.820312 77.089844 L 216.941406 72.859375 L 213.800781 68.816406 L 210.414062 64.980469 L 206.792969 61.367188 L 202.953125 57.984375 L 198.90625 54.851562 L 194.671875 51.980469 L 190.261719 49.378906 L 185.699219 47.058594 L 181 45.03125 L 176.183594 43.304688 L 171.265625 41.882812 L 166.273438 40.773438 L 161.214844 39.980469 L 156.121094 39.507812 L 151.003906 39.355469 L 145.890625 39.523438 L 140.796875 40.011719 L 135.742188 40.824219 L 130.75 41.949219 L 125.839844 43.382812 L 121.027344 45.128906 L 116.332031 47.167969 L 111.777344 49.5 L 107.378906 52.117188 L 103.152344 55.003906 L 99.117188 58.148438 L 95.285156 61.539062 L 91.675781 65.167969 L 88.300781 69.015625 L 85.171875 73.066406 L 82.308594 77.304688 L 79.714844 81.71875 L 77.402344 86.285156 L 75.382812 90.988281 L 73.664062 95.808594 L 72.25 100.726562 L 71.148438 105.722656 L 70.363281 110.78125 L 69.894531 115.875 L 69.75 120.992188 L 69.929688 126.105469 L 70.425781 131.199219 L 71.242188 136.25 L 72.375 141.242188 L 73.820312 146.152344 L 75.570312 150.960938 L 77.621094 155.652344 L 79.960938 160.203125 L 82.582031 164.597656 L 85.472656 168.820312 L 88.625 172.851562 L 92.027344 176.675781 L 95.660156 180.28125 L 99.511719 183.648438 L 103.566406 186.769531 L 107.8125 189.628906 L 112.226562 192.214844 L 116.796875 194.519531 L 121.503906 196.53125 L 126.324219 198.246094 L 131.246094 199.652344 L 136.246094 200.746094 L 141.304688 201.523438 L 146.402344 201.980469 L 151.515625 202.117188 L 156.632812 201.933594 L 161.722656 201.425781 L 166.773438 200.601562 L 171.761719 199.460938 L 176.671875 198.007812 L 181.476562 196.25 L 186.164062 194.191406 L 190.710938 191.847656 L 195.101562 189.21875 L 199.320312 186.320312 L 203.347656 183.160156 L 207.167969 179.753906 L 210.765625 176.117188 L 214.128906 172.257812 L 217.242188 168.199219 L 220.09375 163.949219 L 222.675781 159.527344 L 224.972656 154.957031 L 226.976562 150.246094 L 228.679688 145.421875 L 230.078125 140.5 L 231.164062 135.496094 L 231.933594 130.4375 L 232.382812 125.339844 L 232.511719 120.222656 L 232.320312 115.109375 L 231.804688 110.019531 L 230.972656 104.96875 L 229.824219 99.980469 L 228.363281 95.078125 L 226.597656 90.273438 L 224.535156 85.589844 L 222.179688 81.046875 L 219.546875 76.660156 L 216.640625 72.445312 L 213.476562 68.425781 L 210.0625 64.609375 L 206.417969 61.015625 L 202.554688 57.660156 L 198.492188 54.550781 L 194.238281 51.707031 L 189.8125 49.132812 L 185.234375 46.84375 L 180.523438 44.847656 L 175.695312 43.148438 L 170.769531 41.757812 L 165.769531 40.679688 L 160.707031 39.917969 L 155.609375 39.476562 L 150.492188 39.355469 L 145.378906 39.558594 L 140.289062 40.078125 L 135.238281 40.921875 L 130.253906 42.078125 L 125.351562 43.546875 L 120.550781 45.316406 L 115.871094 47.390625 L 111.332031 49.75 L 106.949219 52.394531 L 102.742188 55.304688 L 98.722656 58.476562 L 94.914062 61.894531 L 91.328125 65.542969 L 87.976562 69.410156 L 84.875 73.480469 L 82.035156 77.742188 L 79.46875 82.167969 L 77.1875 86.75 L 75.199219 91.464844 L 73.507812 96.292969 L 72.125 101.222656 L 71.054688 106.226562 L 70.300781 111.289062 L 69.867188 116.386719 L 69.753906 121.503906 L 69.964844 126.617188 L 70.492188 131.707031 L 71.34375 136.753906 L 72.507812 141.738281 L 73.984375 146.636719 L 75.761719 151.4375 L 77.84375 156.113281 L 80.210938 160.648438 L 82.859375 165.027344 L 85.777344 169.230469 L 88.957031 173.242188 L 92.378906 177.046875 L 96.035156 180.628906 L 99.90625 183.972656 L 103.984375 187.066406 L 108.246094 189.902344 L 112.679688 192.460938 L 117.261719 194.734375 L 121.980469 196.71875 L 126.8125 198.398438 L 131.742188 199.773438 L 136.75 200.835938 L 141.8125 201.582031 L 146.910156 202.007812 L 152.027344 202.113281 L 157.140625 201.894531 L 162.230469 201.359375 L 167.277344 200.5 L 172.257812 199.328125 L 177.15625 197.84375 L 181.949219 196.058594 L 186.625 193.972656 L 191.15625 191.59375 L 195.53125 188.941406 L 199.730469 186.015625 L 203.738281 182.832031 L 207.535156 179.402344 L 211.113281 175.742188 L 214.449219 171.863281 L 217.539062 167.78125 L 220.363281 163.515625 L 222.917969 159.078125 L 225.183594 154.492188 L 227.160156 149.769531 L 228.835938 144.933594 L 230.203125 140 L 231.257812 134.992188 L 231.992188 129.929688 L 232.410156 124.828125 L 232.507812 119.710938 L 232.28125 114.597656 L 231.738281 109.511719 L 230.871094 104.46875 L 229.691406 99.488281 L 228.199219 94.589844 L 226.40625 89.800781 L 224.3125 85.128906 L 221.929688 80.601562 L 219.265625 76.230469 L 216.335938 72.035156 L 213.144531 68.035156 L 209.710938 64.238281 L 206.042969 60.671875 L 202.160156 57.335938 L 198.074219 54.253906 L 193.800781 51.4375 L 189.363281 48.890625 L 184.769531 46.632812 L 180.046875 44.664062 L 175.207031 42.996094 L 170.273438 41.636719 L 165.265625 40.589844 L 160.199219 39.859375 L 155.097656 39.449219 L 149.980469 39.363281 L 144.867188 39.59375 L 139.78125 40.148438 L 134.738281 41.023438 L 129.761719 42.210938 L 124.867188 43.707031 L 120.078125 45.511719 L 115.410156 47.613281 L 110.886719 50.003906 L 106.519531 52.671875 L 102.328125 55.609375 L 98.332031 58.808594 L 94.542969 62.246094 L 90.980469 65.921875 L 87.652344 69.808594 L 84.578125 73.898438 L 81.765625 78.175781 L 79.230469 82.621094 L 76.976562 87.214844 L 75.015625 91.941406 L 73.355469 96.78125 L 72.003906 101.71875 L 70.964844 106.730469 L 70.242188 111.796875 L 69.839844 116.898438 L 69.761719 122.015625 L 70.003906 127.128906 L 70.5625 132.214844 L 71.445312 137.253906 L 72.640625 142.230469 L 74.148438 147.121094 L 75.957031 151.910156 L 78.066406 156.574219 L 80.460938 161.09375 L 83.140625 165.457031 L 86.085938 169.640625 L 89.285156 173.632812 L 92.734375 177.414062 L 96.410156 180.972656 L 100.304688 184.292969 L 104.402344 187.363281 L 108.683594 190.167969 L 113.128906 192.699219 L 117.726562 194.945312 L 122.457031 196.898438 L 127.300781 198.550781 L 132.242188 199.894531 L 137.253906 200.925781 L 142.320312 201.640625 L 147.421875 202.035156 L 152.539062 202.105469 L 157.652344 201.855469 L 162.738281 201.285156 L 167.777344 200.398438 L 172.75 199.195312 L 177.640625 197.679688 L 182.425781 195.863281 L 187.085938 193.746094 L 191.601562 191.34375 L 195.960938 188.660156 L 200.140625 185.707031 L 204.128906 182.5 L 207.902344 179.046875 L 211.457031 175.363281 L 214.769531 171.460938 L 217.832031 167.363281 L 220.632812 163.078125 L 223.15625 158.625 L 225.394531 154.023438 L 227.339844 149.289062 L 228.984375 144.445312 L 230.320312 139.503906 L 231.34375 134.488281 L 232.050781 129.421875 L 232.4375 124.316406 L 232.5 119.199219 L 232.242188 114.089844 L 231.664062 109.003906 L 230.769531 103.964844 L 229.554688 98.992188 L 228.035156 94.109375 L 226.210938 89.328125 L 224.085938 84.667969 L 221.675781 80.15625 L 218.984375 75.800781 L 216.027344 71.625 L 212.8125 67.644531 L 209.351562 63.871094 L 205.664062 60.324219 L 201.757812 57.019531 L 197.652344 53.960938 L 193.363281 51.167969 L 188.910156 48.652344 L 184.304688 46.421875 L 179.566406 44.484375 L 174.71875 42.847656 L 169.777344 41.519531 L 164.761719 40.503906 L 159.691406 39.804688 L 154.585938 39.425781 L 149.46875 39.371094 L 144.359375 39.636719 L 139.273438 40.222656 L 134.238281 41.128906 L 129.265625 42.347656 L 124.382812 43.875 L 119.605469 45.707031 L 114.953125 47.839844 L 110.441406 50.257812 L 106.09375 52.953125 L 101.921875 55.917969 L 97.945312 59.140625 L 94.179688 62.605469 L 90.636719 66.300781 L 87.335938 70.210938 L 84.285156 74.320312 L 81.5 78.613281 L 78.992188 83.074219 L 76.765625 87.683594 L 74.835938 92.421875 L 73.207031 97.273438 L 71.886719 102.21875 L 70.878906 107.234375 L 70.1875 112.304688 L 69.820312 117.410156 L 69.769531 122.527344 L 70.042969 127.636719 L 70.636719 132.71875 L 71.550781 137.757812 L 72.777344 142.726562 L 74.316406 147.605469 L 76.15625 152.382812 L 78.292969 157.03125 L 80.71875 161.539062 L 83.421875 165.882812 L 86.394531 170.050781 L 89.621094 174.019531 L 93.089844 177.78125 L 96.792969 181.316406 L 100.707031 184.613281 L 104.820312 187.65625 L 109.121094 190.433594 L 113.582031 192.9375 L 118.195312 195.15625 L 122.9375 197.078125 L 127.792969 198.699219 L 132.738281 200.011719 L 137.757812 201.011719 L 142.828125 201.691406 L 147.933594 202.054688 L 153.050781 202.09375 L 158.160156 201.8125 L 163.242188 201.210938 L 168.277344 200.292969 L 173.246094 199.054688 L 178.125 197.511719 L 182.894531 195.664062 L 187.542969 193.519531 L 192.046875 191.085938 L 196.386719 188.375 L 200.546875 185.398438 L 204.515625 182.164062 L 208.269531 178.6875 L 211.800781 174.980469 L 215.089844 171.0625 L 218.125 166.941406 L 220.898438 162.640625 L 223.394531 158.171875 L 225.601562 153.554688 L 227.519531 148.8125 L 229.132812 143.953125 L 230.4375 139.003906 L 231.429688 133.984375 L 232.101562 128.910156 L 232.457031 123.804688 L 232.488281 118.6875 L 232.199219 113.578125 L 231.589844 108.5 L 230.660156 103.464844 L 229.417969 98.5 L 227.867188 93.625 L 226.011719 88.855469 L 223.859375 84.210938 L 221.417969 79.714844 L 218.703125 75.375 L 215.71875 71.21875 L 212.476562 67.257812 L 208.996094 63.507812 L 205.28125 59.984375 L 201.355469 56.699219 L 197.234375 53.671875 L 192.925781 50.90625 L 188.457031 48.417969 L 183.835938 46.214844 L 179.085938 44.304688 L 174.226562 42.699219 L 169.277344 41.402344 L 164.253906 40.417969 L 159.179688 39.753906 L 154.074219 39.40625 L 148.957031 39.382812 L 143.847656 39.679688 L 138.769531 40.296875 L 133.738281 41.234375 L 128.773438 42.484375 L 123.902344 44.046875 L 119.132812 45.910156 L 114.496094 48.066406 L 110 50.515625 L 105.667969 53.238281 L 101.515625 56.230469 L 97.558594 59.476562 L 93.8125 62.964844 L 90.296875 66.679688 L 87.019531 70.613281 L 83.996094 74.742188 L 81.238281 79.050781 L 78.753906 83.527344 L 76.558594 88.148438 L 74.660156 92.902344 L 73.058594 97.761719 L 71.769531 102.714844 L 70.796875 107.738281 L 70.136719 112.816406 L 69.800781 117.921875 L 69.785156 123.039062 L 70.089844 128.148438 L 70.714844 133.226562 L 71.660156 138.257812 L 72.917969 143.21875 L 74.484375 148.089844 L 76.355469 152.851562 L 78.523438 157.488281 L 80.976562 161.980469 L 83.707031 166.308594 L 86.703125 170.457031 L 89.957031 174.40625 L 93.453125 178.144531 L 97.175781 181.65625 L 101.109375 184.929688 L 105.242188 187.945312 L 109.558594 190.699219 L 114.039062 193.171875 L 118.664062 195.359375 L 123.417969 197.253906 L 128.28125 198.84375 L 133.238281 200.125 L 138.261719 201.09375 L 143.339844 201.742188 L 148.445312 202.074219 L 153.5625 202.082031 L 158.671875 201.769531 L 163.75 201.132812 L 168.777344 200.183594 L 173.738281 198.914062 L 178.605469 197.339844 L 183.367188 195.460938 L 188 193.289062 L 192.488281 190.828125 L 196.808594 188.089844 L 200.953125 185.085938 L 204.898438 181.828125 L 208.632812 178.328125 L 212.140625 174.597656 L 215.402344 170.65625 L 218.414062 166.519531 L 221.160156 162.199219 L 223.628906 157.714844 L 225.808594 153.085938 L 227.695312 148.328125 L 229.277344 143.460938 L 230.550781 138.507812 L 231.511719 133.480469 L 232.152344 128.402344 L 232.472656 123.292969 L 232.472656 118.175781 L 232.152344 113.070312 L 231.511719 107.992188 L 230.550781 102.964844 L 229.277344 98.007812 L 227.695312 93.140625 L 225.808594 88.382812 L 223.628906 83.753906 L 221.160156 79.273438 L 218.414062 74.953125 L 215.402344 70.8125 L 212.140625 66.871094 L 208.632812 63.144531 L 204.898438 59.644531 L 200.953125 56.386719 L 196.808594 53.382812 L 192.488281 50.644531 L 188 48.183594 L 183.367188 46.007812 L 178.605469 44.132812 L 173.738281 42.554688 L 168.777344 41.289062 L 163.75 40.339844 L 158.671875 39.703125 L 153.5625 39.390625 L 148.445312 39.398438 L 143.339844 39.726562 L 138.261719 40.378906 L 133.238281 41.347656 L 128.28125 42.628906 L 123.417969 44.21875 L 118.664062 46.113281 L 114.039062 48.300781 L 109.558594 50.773438 L 105.242188 53.527344 L 101.109375 56.542969 L 97.175781 59.8125 L 93.453125 63.324219 L 89.957031 67.066406 L 86.703125 71.015625 L 83.707031 75.164062 L 80.976562 79.492188 L 78.523438 83.984375 L 76.355469 88.621094 L 74.484375 93.382812 L 72.917969 98.253906 L 71.660156 103.214844 L 70.714844 108.246094 L 70.089844 113.324219 L 69.785156 118.433594 L 69.800781 123.550781 L 70.136719 128.65625 L 70.796875 133.730469 L 71.769531 138.757812 L 73.058594 143.707031 L 74.660156 148.570312 L 76.558594 153.320312 L 78.753906 157.945312 L 81.238281 162.421875 L 83.996094 166.730469 L 87.019531 170.859375 L 90.296875 174.789062 L 93.8125 178.507812 L 97.558594 181.996094 L 101.515625 185.242188 L 105.667969 188.234375 L 110 190.957031 L 114.496094 193.402344 L 119.132812 195.5625 L 123.902344 197.425781 L 128.773438 198.988281 L 133.738281 200.238281 L 138.769531 201.171875 L 143.847656 201.792969 L 148.957031 202.089844 L 154.074219 202.066406 L 159.179688 201.71875 L 164.253906 201.054688 L 169.277344 200.070312 L 174.226562 198.773438 L 179.085938 197.167969 L 183.835938 195.257812 L 188.457031 193.054688 L 192.925781 190.566406 L 197.234375 187.800781 L 201.355469 184.769531 L 205.28125 181.488281 L 208.996094 177.964844 L 212.476562 174.214844 L 215.71875 170.253906 L 218.703125 166.09375 L 221.417969 161.757812 L 223.859375 157.261719 L 226.011719 152.617188 L 227.867188 147.847656 L 229.417969 142.972656 L 230.660156 138.007812 L 231.589844 132.972656 L 232.199219 127.890625 L 232.488281 122.78125 L 232.457031 117.664062 L 232.101562 112.558594 L 231.429688 107.488281 L 230.4375 102.464844 L 229.132812 97.519531 L 227.519531 92.660156 L 225.601562 87.914062 L 223.394531 83.300781 L 220.898438 78.832031 L 218.125 74.53125 L 215.089844 70.410156 L 211.800781 66.492188 L 208.269531 62.785156 L 204.515625 59.308594 L 200.546875 56.074219 L 196.386719 53.097656 L 192.046875 50.386719 L 187.542969 47.953125 L 182.894531 45.808594 L 178.125 43.960938 L 173.246094 42.414062 L 168.277344 41.179688 L 163.242188 40.261719 L 158.160156 39.65625 L 153.050781 39.375 L 147.933594 39.417969 L 142.828125 39.777344 L 137.757812 40.460938 L 132.738281 41.460938 L 127.792969 42.773438 L 122.9375 44.394531 L 118.195312 46.316406 L 113.582031 48.535156 L 109.121094 51.039062 L 104.820312 53.816406 L 100.707031 56.859375 L 96.792969 60.15625 L 93.089844 63.691406 L 89.621094 67.449219 L 86.394531 71.421875 L 83.421875 75.589844 L 80.71875 79.933594 L 78.292969 84.441406 L 76.15625 89.089844 L 74.316406 93.867188 L 72.777344 98.746094 L 71.550781 103.714844 L 70.636719 108.75 L 70.042969 113.835938 L 69.769531 118.945312 L 69.820312 124.0625 L 70.1875 129.167969 L 70.878906 134.238281 L 71.886719 139.253906 L 73.207031 144.199219 L 74.835938 149.050781 L 76.765625 153.789062 L 78.992188 158.398438 L 81.5 162.859375 L 84.285156 167.152344 L 87.335938 171.261719 L 90.636719 175.171875 L 94.179688 178.867188 L 97.945312 182.332031 L 101.921875 185.554688 L 106.09375 188.519531 L 110.441406 191.214844 L 114.953125 193.632812 L 119.605469 195.761719 L 124.382812 197.597656 L 129.265625 199.125 L 134.238281 200.34375 L 139.273438 201.25 L 144.359375 201.835938 L 149.46875 202.101562 L 154.585938 202.042969 L 159.691406 201.667969 L 164.761719 200.96875 L 169.777344 199.953125 L 174.71875 198.625 L 179.566406 196.988281 L 184.304688 195.050781 L 188.910156 192.820312 L 193.363281 190.300781 L 197.652344 187.511719 L 201.757812 184.453125 L 205.664062 181.144531 L 209.351562 177.597656 L 212.8125 173.828125 L 216.027344 169.84375 L 218.984375 165.667969 L 221.675781 161.316406 L 224.085938 156.800781 L 226.210938 152.144531 L 228.035156 147.363281 L 229.554688 142.476562 L 230.769531 137.507812 L 231.664062 132.46875 L 232.242188 127.382812 L 232.5 122.269531 L 232.4375 117.152344 L 232.050781 112.050781 L 231.34375 106.980469 L 230.320312 101.96875 L 228.984375 97.027344 L 227.339844 92.179688 L 225.394531 87.449219 L 223.15625 82.847656 L 220.632812 78.394531 L 217.832031 74.109375 L 214.769531 70.007812 L 211.457031 66.109375 L 207.902344 62.425781 L 204.128906 58.972656 L 200.140625 55.765625 L 195.960938 52.8125 L 191.601562 50.128906 L 187.085938 47.726562 L 182.425781 45.609375 L 177.640625 43.792969 L 172.75 42.277344 L 167.777344 41.074219 L 162.738281 40.1875 L 157.652344 39.617188 L 152.539062 39.367188 L 147.421875 39.4375 L 142.320312 39.832031 L 137.253906 40.546875 L 132.242188 41.578125 L 127.300781 42.921875 L 122.457031 44.574219 L 117.726562 46.527344 L 113.128906 48.773438 L 108.683594 51.304688 L 104.402344 54.109375 L 100.304688 57.175781 L 96.410156 60.496094 L 92.734375 64.054688 L 89.285156 67.839844 L 86.085938 71.832031 L 83.140625 76.015625 L 80.460938 80.378906 L 78.066406 84.898438 L 75.957031 89.5625 L 74.148438 94.347656 L 72.640625 99.242188 L 71.445312 104.214844 L 70.5625 109.257812 L 70.003906 114.34375 L 69.761719 119.457031 L 69.839844 124.574219 L 70.242188 129.675781 L 70.964844 134.742188 L 72.003906 139.753906 L 73.355469 144.6875 L 75.015625 149.53125 L 76.976562 154.257812 L 79.230469 158.851562 L 81.765625 163.296875 L 84.578125 167.570312 L 87.652344 171.664062 L 90.980469 175.550781 L 94.542969 179.222656 L 98.332031 182.664062 L 102.328125 185.859375 L 106.519531 188.800781 L 110.886719 191.46875 L 115.410156 193.859375 L 120.078125 195.960938 L 124.867188 197.761719 L 129.761719 199.261719 L 134.738281 200.449219 L 139.78125 201.324219 L 144.867188 201.875 L 149.980469 202.109375 L 155.097656 202.019531 L 160.199219 201.609375 L 165.265625 200.882812 L 170.273438 199.835938 L 175.207031 198.476562 L 180.046875 196.808594 L 184.769531 194.839844 L 189.363281 192.578125 L 193.800781 190.035156 L 198.074219 187.214844 L 202.160156 184.132812 L 206.042969 180.800781 L 209.710938 177.230469 L 213.144531 173.4375 L 216.335938 169.4375 L 219.265625 165.242188 L 221.929688 160.871094 L 224.3125 156.34375 L 226.40625 151.671875 L 228.199219 146.878906 L 229.691406 141.984375 L 230.871094 137.003906 L 231.738281 131.960938 L 232.28125 126.871094 L 232.507812 121.757812 L 232.410156 116.644531 L 231.992188 111.542969 L 231.257812 106.476562 L 230.203125 101.46875 L 228.835938 96.539062 L 227.160156 91.703125 L 225.183594 86.980469 L 222.917969 82.394531 L 220.363281 77.957031 L 217.539062 73.691406 L 214.449219 69.609375 L 211.113281 65.730469 L 207.535156 62.070312 L 203.738281 58.640625 L 199.730469 55.457031 L 195.53125 52.53125 L 191.15625 49.875 L 186.625 47.5 L 181.949219 45.414062 L 177.15625 43.625 L 172.257812 42.144531 L 167.277344 40.972656 L 162.230469 40.113281 L 157.140625 39.574219 L 152.027344 39.359375 L 146.910156 39.464844 L 141.8125 39.890625 L 136.75 40.636719 L 131.742188 41.699219 L 126.8125 43.074219 L 121.980469 44.753906 L 117.261719 46.738281 L 112.679688 49.011719 L 108.246094 51.570312 L 103.984375 54.402344 L 99.90625 57.5 L 96.035156 60.84375 L 92.378906 64.425781 L 88.957031 68.230469 L 85.777344 72.242188 L 82.859375 76.445312 L 80.210938 80.824219 L 77.84375 85.359375 L 75.761719 90.035156 L 73.984375 94.835938 L 72.507812 99.734375 L 71.34375 104.71875 L 70.492188 109.765625 L 69.964844 114.855469 L 69.753906 119.96875 L 69.867188 125.085938 L 70.300781 130.183594 L 71.054688 135.246094 L 72.125 140.25 L 73.507812 145.175781 L 75.199219 150.007812 L 77.1875 154.722656 L 79.46875 159.304688 L 82.035156 163.730469 L 84.875 167.988281 L 87.976562 172.0625 L 91.328125 175.929688 L 94.914062 179.578125 L 98.722656 182.996094 L 102.742188 186.167969 L 106.949219 189.078125 L 111.332031 191.722656 L 115.871094 194.082031 L 120.550781 196.152344 L 125.351562 197.925781 L 130.253906 199.394531 L 135.238281 200.550781 L 140.289062 201.390625 L 145.378906 201.914062 L 150.492188 202.117188 L 155.609375 201.996094 L 160.707031 201.550781 L 165.769531 200.792969 L 170.769531 199.710938 L 175.695312 198.324219 L 180.523438 196.625 L 185.234375 194.628906 L 189.8125 192.339844 L 194.238281 189.765625 L 198.492188 186.917969 L 202.554688 183.8125 L 206.417969 180.457031 L 210.0625 176.863281 L 213.476562 173.046875 L 216.640625 169.027344 L 219.546875 164.8125 L 222.179688 160.425781 L 224.535156 155.882812 L 226.597656 151.199219 L 228.363281 146.394531 L 229.824219 141.488281 L 230.972656 136.503906 L 231.804688 131.453125 L 232.320312 126.363281 L 232.511719 121.246094 L 232.382812 116.132812 L 231.933594 111.035156 L 231.164062 105.972656 L 230.078125 100.972656 L 228.679688 96.050781 L 226.976562 91.226562 L 224.972656 86.515625 L 222.675781 81.941406 L 220.09375 77.523438 L 217.242188 73.273438 L 214.128906 69.214844 L 210.765625 65.355469 L 207.167969 61.714844 L 203.347656 58.3125 L 199.320312 55.152344 L 195.101562 52.253906 L 190.710938 49.625 L 186.164062 47.277344 L 181.476562 45.222656 L 176.671875 43.464844 L 171.761719 42.011719 L 166.773438 40.871094 L 161.722656 40.046875 L 156.632812 39.539062 L 151.515625 39.355469 L 146.402344 39.492188 L 141.304688 39.949219 L 136.246094 40.726562 L 131.246094 41.820312 L 126.324219 43.226562 L 121.503906 44.941406 L 116.796875 46.953125 L 112.226562 49.253906 L 107.8125 51.84375 L 103.566406 54.703125 L 99.511719 57.820312 L 95.660156 61.191406 L 92.027344 64.796875 L 88.625 68.621094 L 85.472656 72.652344 L 82.582031 76.875 L 79.960938 81.269531 L 77.621094 85.820312 L 75.570312 90.511719 L 73.820312 95.320312 L 72.375 100.230469 L 71.242188 105.21875 L 70.425781 110.273438 L 69.929688 115.367188 L 69.75 120.480469 L 69.894531 125.59375 L 70.363281 130.691406 L 71.148438 135.75 L 72.25 140.746094 L 73.664062 145.664062 L 75.382812 150.484375 L 77.402344 155.1875 L 79.714844 159.753906 L 82.308594 164.164062 L 85.171875 168.40625 L 88.300781 172.457031 L 91.675781 176.304688 L 95.285156 179.929688 L 99.117188 183.324219 L 103.152344 186.46875 L 107.378906 189.355469 L 111.777344 191.96875 L 116.332031 194.300781 L 121.027344 196.34375 L 125.839844 198.085938 L 130.75 199.523438 L 135.742188 200.648438 L 140.796875 201.457031 L 145.890625 201.949219 L 151.003906 202.117188 L 156.121094 201.964844 L 161.214844 201.492188 L 166.273438 200.699219 L 171.265625 199.585938 L 176.183594 198.167969 L 181 196.4375 L 185.699219 194.410156 L 190.261719 192.09375 L 194.671875 189.492188 L 198.90625 186.621094 L 202.953125 183.488281 L 206.792969 180.105469 L 210.414062 176.492188 L 213.800781 172.652344 L 216.941406 168.613281 L 219.820312 164.382812 L 222.429688 159.976562 L 224.753906 155.417969 L 226.789062 150.722656 L 228.523438 145.910156 L 229.953125 140.996094 L 231.070312 136 L 231.871094 130.945312 L 232.355469 125.851562 Z M 232.515625 120.734375 "/>
<path fill="none" stroke-width="2.133957" stroke-linecap="butt" stroke-linejoin="round" stroke="rgb(100%, 64.705882%, 0%)" stroke-opacity="1" stroke-miterlimit="10" d="M 151.132812 120.734375 L 74.695312 18.011719 "/>
<path fill-rule="nonzero" fill="rgb(100%, 64.705882%, 0%)" fill-opacity="1" stroke-width="2.133957" stroke-linecap="butt" stroke-linejoin="round" stroke="rgb(100%, 64.705882%, 0%)" stroke-opacity="1" stroke-miterlimit="10" d="M 79.902344 20.257812 L 74.695312 18.011719 L 75.351562 23.640625 Z M 79.902344 20.257812 "/>
<path fill="none" stroke-width="2.133957" stroke-linecap="butt" stroke-linejoin="round" stroke="rgb(0%, 0%, 100%)" stroke-opacity="1" stroke-miterlimit="10" d="M 151.132812 120.734375 L 180.730469 44.925781 "/>
<path fill-rule="nonzero" fill="rgb(0%, 0%, 100%)" fill-opacity="1" stroke-width="2.133957" stroke-linecap="butt" stroke-linejoin="round" stroke="rgb(0%, 0%, 100%)" stroke-opacity="1" stroke-miterlimit="10" d="M 181.585938 50.53125 L 180.730469 44.925781 L 176.304688 48.46875 Z M 181.585938 50.53125 "/>
<g clip-path="url(#clip-15)">
<path fill="none" stroke-width="1.49377" stroke-linecap="butt" stroke-linejoin="round" stroke="rgb(0%, 0%, 100%)" stroke-opacity="0.8" stroke-dasharray="1.49377 4.481309" stroke-miterlimit="10" d="M -144.855469 878.820312 L -144.261719 877.304688 L -143.667969 875.785156 L -143.078125 874.269531 L -142.484375 872.75 L -141.890625 871.234375 L -141.300781 869.714844 L -140.707031 868.199219 L -140.113281 866.679688 L -139.519531 865.164062 L -138.929688 863.644531 L -138.335938 862.128906 L -137.742188 860.609375 L -137.152344 859.089844 L -136.558594 857.574219 L -135.964844 856.054688 L -135.375 854.539062 L -134.78125 853.019531 L -134.1875 851.503906 L -133.59375 849.984375 L -133.003906 848.46875 L -132.410156 846.949219 L -131.816406 845.433594 L -131.226562 843.914062 L -130.632812 842.398438 L -130.039062 840.878906 L -129.449219 839.363281 L -128.855469 837.84375 L -128.261719 836.328125 L -127.671875 834.808594 L -127.078125 833.292969 L -125.890625 830.253906 L -125.300781 828.738281 L -124.707031 827.21875 L -124.113281 825.703125 L -123.523438 824.183594 L -122.929688 822.667969 L -122.335938 821.148438 L -121.746094 819.632812 L -121.152344 818.113281 L -120.558594 816.597656 L -119.964844 815.078125 L -119.375 813.5625 L -118.78125 812.042969 L -118.1875 810.527344 L -117.597656 809.007812 L -117.003906 807.492188 L -116.410156 805.972656 L -115.820312 804.453125 L -115.226562 802.9375 L -114.632812 801.417969 L -114.039062 799.902344 L -113.449219 798.382812 L -112.855469 796.867188 L -112.261719 795.347656 L -111.671875 793.832031 L -111.078125 792.3125 L -110.484375 790.796875 L -109.894531 789.277344 L -109.300781 787.761719 L -108.707031 786.242188 L -108.117188 784.726562 L -107.523438 783.207031 L -106.929688 781.691406 L -106.335938 780.171875 L -105.746094 778.652344 L -105.152344 777.136719 L -104.558594 775.617188 L -103.96875 774.101562 L -103.375 772.582031 L -102.78125 771.066406 L -102.191406 769.546875 L -101.597656 768.03125 L -101.003906 766.511719 L -100.410156 764.996094 L -99.820312 763.476562 L -99.226562 761.960938 L -98.632812 760.441406 L -98.042969 758.925781 L -97.449219 757.40625 L -96.855469 755.890625 L -96.265625 754.371094 L -95.671875 752.855469 L -94.484375 749.816406 L -93.894531 748.300781 L -93.300781 746.78125 L -92.707031 745.265625 L -92.117188 743.746094 L -91.523438 742.230469 L -90.929688 740.710938 L -90.339844 739.195312 L -89.746094 737.675781 L -89.152344 736.160156 L -88.5625 734.640625 L -87.96875 733.125 L -87.375 731.605469 L -86.78125 730.089844 L -86.191406 728.570312 L -85.597656 727.054688 L -85.003906 725.535156 L -84.414062 724.015625 L -83.820312 722.5 L -83.226562 720.980469 L -82.636719 719.464844 L -82.042969 717.945312 L -81.449219 716.429688 L -80.855469 714.910156 L -80.265625 713.394531 L -79.671875 711.875 L -79.078125 710.359375 L -78.488281 708.839844 L -77.894531 707.324219 L -77.300781 705.804688 L -76.710938 704.289062 L -76.117188 702.769531 L -75.523438 701.253906 L -74.929688 699.734375 L -74.339844 698.214844 L -73.746094 696.699219 L -73.152344 695.179688 L -72.5625 693.664062 L -71.96875 692.144531 L -71.375 690.628906 L -70.785156 689.109375 L -70.191406 687.59375 L -69.597656 686.074219 L -69.007812 684.558594 L -68.414062 683.039062 L -67.820312 681.523438 L -67.226562 680.003906 L -66.636719 678.488281 L -66.042969 676.96875 L -65.449219 675.453125 L -64.859375 673.933594 L -64.265625 672.414062 L -63.671875 670.898438 L -63.082031 669.378906 L -62.488281 667.863281 L -61.894531 666.34375 L -61.300781 664.828125 L -60.710938 663.308594 L -60.117188 661.792969 L -59.523438 660.273438 L -58.933594 658.757812 L -58.339844 657.238281 L -57.746094 655.722656 L -57.15625 654.203125 L -56.5625 652.6875 L -55.96875 651.167969 L -55.375 649.652344 L -54.785156 648.132812 L -54.191406 646.617188 L -53.597656 645.097656 L -53.007812 643.578125 L -52.414062 642.0625 L -51.820312 640.542969 L -51.230469 639.027344 L -50.636719 637.507812 L -50.042969 635.992188 L -49.449219 634.472656 L -48.859375 632.957031 L -48.265625 631.4375 L -47.671875 629.921875 L -47.082031 628.402344 L -46.488281 626.886719 L -45.894531 625.367188 L -45.304688 623.851562 L -44.710938 622.332031 L -44.117188 620.816406 L -43.527344 619.296875 L -42.933594 617.777344 L -42.339844 616.261719 L -41.746094 614.742188 L -41.15625 613.226562 L -40.5625 611.707031 L -39.96875 610.191406 L -39.378906 608.671875 L -38.785156 607.15625 L -38.191406 605.636719 L -37.601562 604.121094 L -37.007812 602.601562 L -36.414062 601.085938 L -35.820312 599.566406 L -35.230469 598.050781 L -34.636719 596.53125 L -34.042969 595.015625 L -33.453125 593.496094 L -32.859375 591.976562 L -32.265625 590.460938 L -31.675781 588.941406 L -31.082031 587.425781 L -30.488281 585.90625 L -29.894531 584.390625 L -29.304688 582.871094 L -28.710938 581.355469 L -28.117188 579.835938 L -27.527344 578.320312 L -26.933594 576.800781 L -26.339844 575.285156 L -25.75 573.765625 L -25.15625 572.25 L -24.5625 570.730469 L -23.972656 569.214844 L -23.378906 567.695312 L -22.785156 566.179688 L -22.191406 564.660156 L -21.601562 563.140625 L -21.007812 561.625 L -20.414062 560.105469 L -19.824219 558.589844 L -19.230469 557.070312 L -18.636719 555.554688 L -18.046875 554.035156 L -17.453125 552.519531 L -16.859375 551 L -16.265625 549.484375 L -15.675781 547.964844 L -15.082031 546.449219 L -14.488281 544.929688 L -13.898438 543.414062 L -13.304688 541.894531 L -12.710938 540.378906 L -12.121094 538.859375 L -11.527344 537.339844 L -10.933594 535.824219 L -10.339844 534.304688 L -9.75 532.789062 L -9.15625 531.269531 L -8.5625 529.753906 L -7.972656 528.234375 L -7.378906 526.71875 L -6.785156 525.199219 L -6.195312 523.683594 L -5.601562 522.164062 L -5.007812 520.648438 L -4.417969 519.128906 L -3.824219 517.613281 L -3.230469 516.09375 L -2.636719 514.578125 L -2.046875 513.058594 L -1.453125 511.539062 L -0.859375 510.023438 L -0.269531 508.503906 L 0.324219 506.988281 L 0.917969 505.46875 L 1.507812 503.953125 L 2.101562 502.433594 L 2.695312 500.917969 L 3.289062 499.398438 L 3.878906 497.882812 L 4.472656 496.363281 L 5.066406 494.847656 L 5.65625 493.328125 L 6.25 491.8125 L 6.84375 490.292969 L 7.433594 488.777344 L 8.621094 485.738281 L 9.214844 484.222656 L 9.804688 482.703125 L 10.398438 481.1875 L 10.992188 479.667969 L 11.582031 478.152344 L 12.175781 476.632812 L 12.769531 475.117188 L 13.359375 473.597656 L 13.953125 472.082031 L 14.546875 470.5625 L 15.136719 469.046875 L 15.730469 467.527344 L 16.324219 466.011719 L 16.917969 464.492188 L 17.507812 462.976562 L 18.101562 461.457031 L 18.695312 459.941406 L 19.285156 458.421875 L 19.878906 456.902344 L 20.472656 455.386719 L 21.0625 453.867188 L 21.65625 452.351562 L 22.25 450.832031 L 22.84375 449.316406 L 23.433594 447.796875 L 24.027344 446.28125 L 24.621094 444.761719 L 25.210938 443.246094 L 25.804688 441.726562 L 26.398438 440.210938 L 26.988281 438.691406 L 27.582031 437.175781 L 28.175781 435.65625 L 28.769531 434.140625 L 29.359375 432.621094 L 29.953125 431.101562 L 30.546875 429.585938 L 31.136719 428.066406 L 31.730469 426.550781 L 32.324219 425.03125 L 32.914062 423.515625 L 33.507812 421.996094 L 34.101562 420.480469 L 34.691406 418.960938 L 35.285156 417.445312 L 35.878906 415.925781 L 36.472656 414.410156 L 37.0625 412.890625 L 37.65625 411.375 L 38.25 409.855469 L 38.839844 408.339844 L 40.027344 405.300781 L 40.617188 403.785156 L 41.210938 402.265625 L 41.804688 400.75 L 42.398438 399.230469 L 42.988281 397.714844 L 43.582031 396.195312 L 44.175781 394.679688 L 44.765625 393.160156 L 45.359375 391.644531 L 45.953125 390.125 L 46.542969 388.609375 L 47.136719 387.089844 L 47.730469 385.574219 L 48.324219 384.054688 L 48.914062 382.539062 L 50.101562 379.5 L 50.691406 377.984375 L 51.285156 376.464844 L 51.878906 374.949219 L 52.46875 373.429688 L 53.0625 371.914062 L 53.65625 370.394531 L 54.246094 368.878906 L 54.839844 367.359375 L 55.433594 365.84375 L 56.027344 364.324219 L 56.617188 362.808594 L 57.210938 361.289062 L 57.804688 359.773438 L 58.394531 358.253906 L 58.988281 356.738281 L 59.582031 355.21875 L 60.171875 353.703125 L 61.359375 350.664062 L 61.953125 349.148438 L 62.542969 347.628906 L 63.136719 346.113281 L 63.730469 344.59375 L 64.320312 343.078125 L 64.914062 341.558594 L 65.507812 340.042969 L 66.097656 338.523438 L 66.691406 337.007812 L 67.285156 335.488281 L 67.878906 333.972656 L 68.46875 332.453125 L 69.0625 330.9375 L 69.65625 329.417969 L 70.246094 327.902344 L 71.433594 324.863281 L 72.023438 323.347656 L 72.617188 321.828125 L 73.210938 320.3125 L 73.804688 318.792969 L 74.394531 317.277344 L 74.988281 315.757812 L 75.582031 314.242188 L 76.171875 312.722656 L 76.765625 311.207031 L 77.359375 309.6875 L 77.949219 308.171875 L 78.542969 306.652344 L 79.136719 305.136719 L 79.726562 303.617188 L 80.320312 302.101562 L 81.507812 299.0625 L 82.097656 297.546875 L 82.691406 296.027344 L 83.285156 294.511719 L 83.875 292.992188 L 84.46875 291.476562 L 85.0625 289.957031 L 85.652344 288.441406 L 86.246094 286.921875 L 86.839844 285.40625 L 87.433594 283.886719 L 88.023438 282.371094 L 88.617188 280.851562 L 89.210938 279.335938 L 89.800781 277.816406 L 90.394531 276.300781 L 90.988281 274.78125 L 91.578125 273.265625 L 92.765625 270.226562 L 93.359375 268.710938 L 93.949219 267.191406 L 94.542969 265.675781 L 95.136719 264.15625 L 95.726562 262.640625 L 96.320312 261.121094 L 96.914062 259.605469 L 97.503906 258.085938 L 98.097656 256.570312 L 98.691406 255.050781 L 99.28125 253.535156 L 99.875 252.015625 L 100.46875 250.5 L 101.0625 248.980469 L 101.652344 247.464844 L 102.839844 244.425781 L 103.429688 242.910156 L 104.023438 241.390625 L 104.617188 239.875 L 105.207031 238.355469 L 105.800781 236.839844 L 106.394531 235.320312 L 106.988281 233.804688 L 107.578125 232.285156 L 108.171875 230.769531 L 108.765625 229.25 L 109.355469 227.734375 L 109.949219 226.214844 L 110.542969 224.699219 L 111.132812 223.179688 L 111.726562 221.664062 L 112.914062 218.625 L 113.503906 217.109375 L 114.097656 215.589844 L 114.691406 214.074219 L 115.28125 212.554688 L 115.875 211.039062 L 116.46875 209.519531 L 117.058594 208.003906 L 117.652344 206.484375 L 118.246094 204.96875 L 118.835938 203.449219 L 119.429688 201.933594 L 120.023438 200.414062 L 120.617188 198.898438 L 121.207031 197.378906 L 121.800781 195.863281 L 122.394531 194.34375 L 122.984375 192.824219 L 123.578125 191.308594 L 124.171875 189.789062 L 124.761719 188.273438 L 125.355469 186.753906 L 125.949219 185.238281 L 126.542969 183.71875 L 127.132812 182.203125 L 127.726562 180.683594 L 128.320312 179.167969 L 128.910156 177.648438 L 129.503906 176.132812 L 130.097656 174.613281 L 130.6875 173.097656 L 131.28125 171.578125 L 131.875 170.0625 L 132.46875 168.542969 L 133.058594 167.027344 L 134.246094 163.988281 L 134.835938 162.472656 L 135.429688 160.953125 L 136.023438 159.4375 L 136.613281 157.917969 L 137.207031 156.402344 L 137.800781 154.882812 L 138.390625 153.367188 L 138.984375 151.847656 L 139.578125 150.332031 L 140.171875 148.8125 L 140.761719 147.296875 L 141.355469 145.777344 L 141.949219 144.261719 L 142.539062 142.742188 L 143.132812 141.226562 L 143.726562 139.707031 L 144.316406 138.1875 L 144.910156 136.671875 L 145.503906 135.152344 L 146.097656 133.636719 L 146.6875 132.117188 L 147.28125 130.601562 L 147.875 129.082031 L 148.464844 127.566406 L 149.058594 126.046875 L 149.652344 124.53125 L 150.242188 123.011719 L 150.835938 121.496094 L 151.429688 119.976562 L 152.023438 118.460938 L 152.613281 116.941406 L 153.207031 115.425781 L 153.800781 113.90625 L 154.390625 112.386719 L 154.984375 110.871094 L 155.578125 109.351562 L 156.167969 107.835938 L 156.761719 106.316406 L 157.355469 104.800781 L 157.945312 103.28125 L 158.539062 101.765625 L 159.132812 100.246094 L 159.726562 98.730469 L 160.316406 97.210938 L 160.910156 95.695312 L 161.503906 94.175781 L 162.09375 92.660156 L 162.6875 91.140625 L 163.28125 89.625 L 163.871094 88.105469 L 164.464844 86.589844 L 165.652344 83.550781 L 166.242188 82.035156 L 166.835938 80.515625 L 167.429688 79 L 168.019531 77.480469 L 168.613281 75.964844 L 169.207031 74.445312 L 169.796875 72.929688 L 170.390625 71.410156 L 170.984375 69.894531 L 171.578125 68.375 L 172.167969 66.859375 L 172.761719 65.339844 L 173.355469 63.824219 L 173.945312 62.304688 L 174.539062 60.789062 L 175.132812 59.269531 L 175.722656 57.75 L 176.316406 56.234375 L 176.910156 54.714844 L 177.5 53.199219 L 178.09375 51.679688 L 178.6875 50.164062 L 179.28125 48.644531 L 179.871094 47.128906 L 180.464844 45.609375 L 181.058594 44.09375 L 181.648438 42.574219 L 182.242188 41.058594 L 182.835938 39.539062 L 183.425781 38.023438 L 184.019531 36.503906 L 184.613281 34.988281 L 185.207031 33.46875 L 185.796875 31.949219 L 186.390625 30.433594 L 186.984375 28.914062 L 187.574219 27.398438 L 188.167969 25.878906 L 188.761719 24.363281 L 189.351562 22.84375 L 189.945312 21.328125 L 190.539062 19.808594 L 191.132812 18.292969 L 191.722656 16.773438 L 192.316406 15.257812 L 192.910156 13.738281 L 193.5 12.222656 L 194.09375 10.703125 L 194.6875 9.1875 L 195.277344 7.667969 L 195.871094 6.148438 L 196.464844 4.632812 L 197.058594 3.113281 L 197.648438 1.597656 L 198.242188 0.078125 L 198.835938 -1.4375 L 199.425781 -2.957031 L 200.019531 -4.472656 L 200.613281 -5.992188 L 201.203125 -7.507812 L 201.796875 -9.027344 L 202.390625 -10.542969 L 202.980469 -12.0625 L 203.574219 -13.578125 L 204.167969 -15.097656 L 204.761719 -16.613281 L 205.351562 -18.132812 L 205.945312 -19.648438 L 206.539062 -21.167969 L 207.128906 -22.6875 L 207.722656 -24.203125 L 208.316406 -25.722656 L 208.90625 -27.238281 L 209.5 -28.757812 L 210.09375 -30.273438 L 210.6875 -31.792969 L 211.277344 -33.308594 L 211.871094 -34.828125 L 212.464844 -36.34375 L 213.054688 -37.863281 L 213.648438 -39.378906 L 214.242188 -40.898438 L 214.832031 -42.414062 L 215.425781 -43.933594 L 216.019531 -45.449219 L 216.613281 -46.96875 L 217.203125 -48.488281 L 217.796875 -50.003906 L 218.390625 -51.523438 L 218.980469 -53.039062 L 219.574219 -54.558594 L 220.167969 -56.074219 L 220.757812 -57.59375 L 221.351562 -59.109375 L 221.945312 -60.628906 L 222.535156 -62.144531 L 223.128906 -63.664062 L 223.722656 -65.179688 L 224.316406 -66.699219 L 224.90625 -68.214844 L 225.5 -69.734375 L 226.09375 -71.25 L 226.683594 -72.769531 L 227.277344 -74.289062 L 227.871094 -75.804688 L 228.460938 -77.324219 L 229.054688 -78.839844 L 229.648438 -80.359375 L 230.242188 -81.875 L 230.832031 -83.394531 L 231.425781 -84.910156 L 232.019531 -86.429688 L 232.609375 -87.945312 L 233.203125 -89.464844 L 233.796875 -90.980469 L 234.386719 -92.5 L 234.980469 -94.015625 L 235.574219 -95.535156 L 236.167969 -97.050781 L 236.757812 -98.570312 L 237.351562 -100.085938 L 237.945312 -101.605469 L 238.535156 -103.125 L 239.128906 -104.640625 L 239.722656 -106.160156 L 240.3125 -107.675781 L 240.90625 -109.195312 L 241.5 -110.710938 L 242.089844 -112.230469 L 242.683594 -113.746094 L 243.277344 -115.265625 L 243.871094 -116.78125 L 244.460938 -118.300781 L 245.054688 -119.816406 L 245.648438 -121.335938 L 246.238281 -122.851562 L 246.832031 -124.371094 L 247.425781 -125.886719 L 248.015625 -127.40625 L 248.609375 -128.925781 L 249.203125 -130.441406 L 249.796875 -131.960938 L 250.386719 -133.476562 L 250.980469 -134.996094 L 251.574219 -136.511719 L 252.164062 -138.03125 L 252.757812 -139.546875 L 253.351562 -141.066406 L 253.941406 -142.582031 L 254.535156 -144.101562 L 255.128906 -145.617188 L 255.722656 -147.136719 L 256.3125 -148.652344 L 256.90625 -150.171875 L 257.5 -151.6875 L 258.089844 -153.207031 L 258.683594 -154.726562 L 259.277344 -156.242188 L 259.867188 -157.761719 L 260.460938 -159.277344 L 261.054688 -160.796875 L 261.644531 -162.3125 L 262.238281 -163.832031 L 262.832031 -165.347656 L 263.425781 -166.867188 L 264.015625 -168.382812 L 264.609375 -169.902344 L 265.203125 -171.417969 L 265.792969 -172.9375 L 266.386719 -174.453125 L 266.980469 -175.972656 L 267.570312 -177.488281 L 268.757812 -180.527344 L 269.351562 -182.042969 L 269.941406 -183.5625 L 270.535156 -185.078125 L 271.128906 -186.597656 L 271.71875 -188.113281 L 272.3125 -189.632812 L 272.90625 -191.148438 L 273.496094 -192.667969 L 274.089844 -194.183594 L 274.683594 -195.703125 L 275.277344 -197.21875 L 275.867188 -198.738281 L 276.460938 -200.253906 L 277.054688 -201.773438 L 277.644531 -203.289062 L 278.238281 -204.808594 L 278.832031 -206.324219 L 279.421875 -207.84375 L 280.015625 -209.363281 L 280.609375 -210.878906 L 281.199219 -212.398438 L 281.792969 -213.914062 L 282.386719 -215.433594 L 282.980469 -216.949219 L 283.570312 -218.46875 L 284.164062 -219.984375 L 284.757812 -221.503906 L 285.347656 -223.019531 L 285.941406 -224.539062 L 286.535156 -226.054688 L 287.125 -227.574219 L 287.71875 -229.089844 L 288.3125 -230.609375 L 288.90625 -232.125 L 289.496094 -233.644531 L 290.089844 -235.164062 L 290.683594 -236.679688 L 291.273438 -238.199219 L 291.867188 -239.714844 L 292.460938 -241.234375 L 293.050781 -242.75 L 293.644531 -244.269531 L 294.238281 -245.785156 L 294.832031 -247.304688 L 295.421875 -248.820312 L 296.015625 -250.339844 L 296.609375 -251.855469 L 297.199219 -253.375 L 297.792969 -254.890625 L 298.386719 -256.410156 L 298.976562 -257.925781 L 300.164062 -260.964844 L 300.753906 -262.480469 L 301.347656 -264 L 301.941406 -265.515625 L 302.535156 -267.035156 L 303.125 -268.550781 L 303.71875 -270.070312 L 304.3125 -271.585938 L 304.902344 -273.105469 L 305.496094 -274.621094 L 306.089844 -276.140625 L 306.679688 -277.65625 L 307.273438 -279.175781 L 307.867188 -280.691406 L 308.460938 -282.210938 L 309.050781 -283.726562 L 309.644531 -285.246094 L 310.238281 -286.761719 L 310.828125 -288.28125 L 311.421875 -289.800781 L 312.015625 -291.316406 L 312.605469 -292.835938 L 313.199219 -294.351562 L 313.792969 -295.871094 L 314.386719 -297.386719 L 314.976562 -298.90625 L 315.570312 -300.421875 L 316.164062 -301.941406 L 316.753906 -303.457031 L 317.347656 -304.976562 L 317.941406 -306.492188 L 318.53125 -308.011719 L 319.125 -309.527344 L 319.71875 -311.046875 L 320.3125 -312.5625 L 320.902344 -314.082031 L 321.496094 -315.601562 L 322.089844 -317.117188 L 322.679688 -318.636719 L 323.273438 -320.152344 L 323.867188 -321.671875 L 324.457031 -323.1875 L 325.050781 -324.707031 L 325.644531 -326.222656 L 326.234375 -327.742188 L 326.828125 -329.257812 L 327.421875 -330.777344 L 328.015625 -332.292969 L 328.605469 -333.8125 L 329.199219 -335.328125 L 329.792969 -336.847656 L 330.382812 -338.363281 L 331.570312 -341.402344 L 332.160156 -342.917969 L 332.753906 -344.4375 L 333.347656 -345.953125 L 333.941406 -347.472656 L 334.53125 -348.988281 L 335.125 -350.507812 L 335.71875 -352.023438 L 336.308594 -353.542969 L 336.902344 -355.058594 L 337.496094 -356.578125 L 338.085938 -358.09375 L 338.679688 -359.613281 L 339.273438 -361.128906 L 339.867188 -362.648438 L 340.457031 -364.164062 L 341.644531 -367.203125 L 342.234375 -368.71875 L 342.828125 -370.238281 L 343.421875 -371.753906 L 344.011719 -373.273438 L 344.605469 -374.789062 L 345.199219 -376.308594 L 345.789062 -377.824219 L 346.382812 -379.34375 L 346.976562 -380.859375 L 347.570312 -382.378906 L 348.160156 -383.894531 L 348.753906 -385.414062 L 349.347656 -386.929688 L 349.9375 -388.449219 L 350.53125 -389.964844 L 351.125 -391.484375 L 351.714844 -393 L 352.902344 -396.039062 L 353.496094 -397.554688 L 354.085938 -399.074219 L 354.679688 -400.589844 L 355.273438 -402.109375 L 355.863281 -403.625 L 356.457031 -405.144531 L 357.050781 -406.660156 L 357.640625 -408.179688 L 358.234375 -409.695312 L 358.828125 -411.214844 L 359.421875 -412.730469 L 360.011719 -414.25 L 360.605469 -415.765625 L 361.199219 -417.285156 L 361.789062 -418.800781 L 362.976562 -421.839844 L 363.566406 -423.355469 L 364.160156 -424.875 L 364.753906 -426.390625 L 365.34375 -427.910156 L 365.9375 -429.425781 L 366.53125 -430.945312 L 367.125 -432.460938 L 367.714844 -433.980469 L 368.308594 -435.496094 L 368.902344 -437.015625 L 369.492188 -438.53125 L 370.085938 -440.050781 L 370.679688 -441.566406 L 371.269531 -443.085938 L 371.863281 -444.601562 L 373.050781 -447.640625 L 373.640625 -449.15625 L 374.234375 -450.675781 L 374.828125 -452.191406 L 375.417969 -453.710938 L 376.011719 -455.226562 L 376.605469 -456.746094 L 377.195312 -458.261719 L 377.789062 -459.78125 L 378.382812 -461.296875 L 378.976562 -462.816406 L 379.566406 -464.332031 L 380.160156 -465.851562 L 380.753906 -467.367188 L 381.34375 -468.886719 L 381.9375 -470.402344 L 382.53125 -471.921875 L 383.121094 -473.4375 L 384.308594 -476.476562 L 384.898438 -477.992188 L 385.492188 -479.511719 L 386.085938 -481.027344 L 386.679688 -482.546875 L 387.269531 -484.0625 L 387.863281 -485.582031 L 388.457031 -487.097656 L 389.046875 -488.617188 L 389.640625 -490.132812 L 390.234375 -491.652344 L 390.824219 -493.167969 L 391.417969 -494.6875 L 392.011719 -496.203125 L 392.605469 -497.722656 L 393.195312 -499.238281 L 394.382812 -502.277344 L 394.972656 -503.792969 L 395.566406 -505.3125 L 396.160156 -506.828125 L 396.75 -508.347656 L 397.34375 -509.863281 L 397.9375 -511.382812 L 398.53125 -512.898438 L 399.121094 -514.417969 L 399.714844 -515.933594 L 400.308594 -517.453125 L 400.898438 -518.96875 L 401.492188 -520.488281 L 402.085938 -522.003906 L 402.675781 -523.523438 L 403.269531 -525.039062 L 403.863281 -526.558594 L 404.453125 -528.078125 L 405.046875 -529.59375 L 405.640625 -531.113281 L 406.234375 -532.628906 L 406.824219 -534.148438 L 407.417969 -535.664062 L 408.011719 -537.183594 L 408.601562 -538.699219 L 409.195312 -540.21875 L 409.789062 -541.734375 L 410.378906 -543.253906 L 410.972656 -544.769531 L 411.566406 -546.289062 L 412.160156 -547.804688 L 412.75 -549.324219 L 413.34375 -550.839844 L 413.9375 -552.359375 L 414.527344 -553.878906 L 415.121094 -555.394531 L 415.714844 -556.914062 L 416.304688 -558.429688 L 416.898438 -559.949219 L 417.492188 -561.464844 L 418.085938 -562.984375 L 418.675781 -564.5 L 419.269531 -566.019531 L 419.863281 -567.535156 L 420.453125 -569.054688 L 421.046875 -570.570312 L 421.640625 -572.089844 L 422.230469 -573.605469 L 422.824219 -575.125 L 423.417969 -576.640625 L 424.007812 -578.160156 L 424.601562 -579.675781 L 425.789062 -582.714844 L 426.378906 -584.230469 L 426.972656 -585.75 L 427.566406 -587.265625 L 428.15625 -588.785156 L 428.75 -590.300781 L 429.34375 -591.820312 L 429.933594 -593.335938 L 430.527344 -594.855469 L 431.121094 -596.371094 L 431.714844 -597.890625 L 432.304688 -599.40625 L 432.898438 -600.925781 L 433.492188 -602.441406 L 434.082031 -603.960938 L 434.675781 -605.476562 L 435.269531 -606.996094 L 435.859375 -608.515625 L 436.453125 -610.03125 L 437.046875 -611.550781 L 437.640625 -613.066406 L 438.230469 -614.585938 L 438.824219 -616.101562 L 439.417969 -617.621094 L 440.007812 -619.136719 L 440.601562 -620.65625 L 441.195312 -622.171875 L 441.785156 -623.691406 L 442.378906 -625.207031 L 442.972656 -626.726562 L 443.566406 -628.242188 L 444.15625 -629.761719 L 444.75 -631.277344 L 445.34375 -632.796875 L 445.933594 -634.316406 L 446.527344 -635.832031 L 447.121094 -637.351562 "/>
</g>
<path fill="none" stroke-width="1.49377" stroke-linecap="butt" stroke-linejoin="round" stroke="rgb(100%, 64.705882%, 0%)" stroke-opacity="0.8" stroke-dasharray="1.49377 4.481309" stroke-miterlimit="10" d="M 74.695312 18.011719 L 175.824219 57.496094 "/>
<path fill-rule="nonzero" fill="rgb(0%, 0%, 100%)" fill-opacity="1" stroke-width="0.708661" stroke-linecap="round" stroke-linejoin="round" stroke="rgb(100%, 64.705882%, 0%)" stroke-opacity="1" stroke-miterlimit="10" d="M 175.824219 59.945312 L 178.273438 57.496094 L 175.824219 55.042969 L 173.375 57.496094 Z M 175.824219 59.945312 "/>
</svg>
